<svg width="48" height="48" viewBox="0 0 48 48" fill="none" xmlns="http://www.w3.org/2000/svg">
<path d="M43.9995 25.3957C43.9965 28.3349 43.9742 30.833 43.8071 32.8829C43.6133 35.2615 43.2162 37.2492 42.3272 38.9C41.9351 39.6281 41.4533 40.2801 40.8667 40.8667C39.202 42.5315 37.081 43.2856 34.3931 43.647C31.7671 44 28.4014 44 24.1067 44H23.8933C19.5986 44 16.2329 44 13.6069 43.647C10.919 43.2856 8.79804 42.5315 7.13328 40.8667C5.65741 39.3909 4.89525 37.5539 4.48996 35.2752C4.09181 33.0368 4.01898 30.2517 4.00385 26.7934C4 25.9138 4 24.9834 4 24.0019V23.8932C3.99998 19.5986 3.99996 16.2329 4.35302 13.6069C4.71439 10.919 5.46852 8.79804 7.13328 7.13328C8.79804 5.46852 10.919 4.71439 13.6069 4.35302C15.9422 4.03904 18.9469 4.0043 22.6041 4.00047C23.3747 3.99967 24 4.62472 24 5.39535C24 6.16598 23.3744 6.7904 22.6038 6.79121C18.895 6.79513 16.135 6.82893 13.9787 7.11883C11.6003 7.4386 10.1664 8.04677 9.1066 9.1066C8.04677 10.1664 7.4386 11.6003 7.11883 13.9787C6.79366 16.3973 6.7907 19.5754 6.7907 24C6.7907 24.5403 6.7907 25.0629 6.79133 25.5688L8.65391 23.9391C10.3493 22.4557 12.9045 22.5407 14.4974 24.1337L22.4783 32.1146C23.7569 33.3931 25.7696 33.5675 27.2489 32.5278L27.8037 32.1379C29.9325 30.6418 32.8127 30.8151 34.7467 32.5557L40.0128 37.2952C40.5428 36.182 40.8576 34.7195 41.0257 32.6562C41.1841 30.7122 41.2058 28.351 41.2088 25.3958C41.2096 24.6251 41.834 24 42.6047 24C43.3753 24 44.0003 24.6251 43.9995 25.3957Z" fill="white"/>
<path fill-rule="evenodd" clip-rule="evenodd" d="M35 22C30.7574 22 28.636 22 27.318 20.682C26 19.364 26 17.2426 26 13C26 8.75736 26 6.63604 27.318 5.31802C28.636 4 30.7574 4 35 4C39.2426 4 41.364 4 42.682 5.31802C44 6.63604 44 8.75736 44 13C44 17.2426 44 19.364 42.682 20.682C41.364 22 39.2426 22 35 22ZM36.5 9C36.5 8.17157 35.8284 7.5 35 7.5C34.1716 7.5 33.5 8.17157 33.5 9V11.5H31C30.1716 11.5 29.5 12.1716 29.5 13C29.5 13.8284 30.1716 14.5 31 14.5H33.5V17C33.5 17.8284 34.1716 18.5 35 18.5C35.8284 18.5 36.5 17.8284 36.5 17V14.5H39C39.8284 14.5 40.5 13.8284 40.5 13C40.5 12.1716 39.8284 11.5 39 11.5H36.5V9Z" fill="white"/>
</svg>
