<?xml version="1.0" standalone="no"?>
<!DOCTYPE svg PUBLIC "-//W3C//DTD SVG 20010904//EN"
 "http://www.w3.org/TR/2001/REC-SVG-20010904/DTD/svg10.dtd">
<svg version="1.0" xmlns="http://www.w3.org/2000/svg"
 width="1280.000000pt" height="1280.000000pt" viewBox="0 0 1280.000000 1280.000000"
 preserveAspectRatio="xMidYMid meet">
<metadata>
Created by potrace 1.15, written by Peter Selinger 2001-2017
</metadata>
<g transform="translate(0.000000,1280.000000) scale(0.100000,-0.100000)"
fill="#000000" stroke="none">
<path d="M8265 10383 c-6 -5 -33 -39 -60 -78 -27 -38 -135 -155 -240 -260
-104 -104 -199 -207 -210 -227 -18 -35 -18 -38 -2 -56 11 -12 44 -24 88 -31
39 -7 68 -15 66 -17 -3 -3 -35 1 -72 7 -63 12 -68 12 -81 -6 -8 -11 -11 -28
-8 -39 25 -81 650 -1329 775 -1550 40 -69 61 -86 87 -70 38 25 39 126 2 854
-5 96 -9 272 -9 391 -1 161 -4 219 -13 227 -7 5 -82 27 -166 47 -164 40 -204
58 -56 25 49 -11 105 -20 125 -20 68 0 69 8 10 242 -58 234 -129 462 -164 523
-22 39 -50 54 -72 38z m-318 -679 c-3 -3 -12 -4 -19 -1 -8 3 -5 6 6 6 11 1 17
-2 13 -5z m40 -10 c-3 -3 -12 -4 -19 -1 -8 3 -5 6 6 6 11 1 17 -2 13 -5z m40
-10 c-3 -3 -12 -4 -19 -1 -8 3 -5 6 6 6 11 1 17 -2 13 -5z m40 -10 c-3 -3 -12
-4 -19 -1 -8 3 -5 6 6 6 11 1 17 -2 13 -5z m40 -10 c-3 -3 -12 -4 -19 -1 -8 3
-5 6 6 6 11 1 17 -2 13 -5z m150 -40 c-3 -3 -12 -4 -19 -1 -8 3 -5 6 6 6 11 1
17 -2 13 -5z"/>
<path d="M8377 10369 c-14 -19 -12 -31 19 -122 48 -141 119 -393 144 -507 26
-121 34 -140 61 -140 12 0 44 16 70 35 27 19 51 35 54 35 3 0 -11 -22 -30 -49
-19 -26 -35 -60 -35 -75 0 -15 -6 -26 -14 -26 -38 0 -37 -15 14 -581 28 -305
54 -565 58 -579 5 -17 16 -26 33 -28 21 -2 38 9 82 55 119 125 263 317 404
538 117 185 213 350 213 368 0 8 -7 20 -15 27 -14 11 -13 14 7 24 13 6 24 19
26 29 3 17 -97 378 -168 607 -42 135 -61 170 -89 170 -14 0 -17 6 -14 23 3 14
-2 29 -11 36 -15 12 -739 180 -778 181 -9 0 -23 -9 -31 -21z m640 -935 c-3 -3
-12 -4 -19 -1 -8 3 -5 6 6 6 11 1 17 -2 13 -5z m138 -33 c61 -16 104 -30 97
-30 -15 -1 -215 48 -221 55 -8 8 15 3 124 -25z m142 -37 c-3 -3 -12 -4 -19 -1
-8 3 -5 6 6 6 11 1 17 -2 13 -5z m40 -10 c-3 -3 -12 -4 -19 -1 -8 3 -5 6 6 6
11 1 17 -2 13 -5z m50 -10 c-3 -3 -12 -4 -19 -1 -8 3 -5 6 6 6 11 1 17 -2 13
-5z"/>
<path d="M9312 10169 c-15 -6 -22 -17 -22 -34 0 -26 203 -702 224 -745 20 -42
48 -37 91 17 22 26 116 125 210 218 233 231 312 348 255 375 -21 10 -581 148
-666 164 -40 7 -79 10 -92 5z"/>
<path d="M9909 9705 c-290 -294 -349 -371 -321 -415 10 -16 6 -18 -40 -16
l-51 1 -65 -115 c-35 -63 -144 -248 -242 -410 -194 -323 -276 -473 -340 -623
-40 -93 -41 -99 -26 -123 9 -13 23 -24 30 -24 8 0 81 50 162 111 142 106 366
264 844 593 327 226 480 342 480 366 0 23 -31 45 -78 55 -18 4 -31 9 -29 12 3
3 31 -1 62 -7 51 -10 59 -10 76 6 12 11 19 27 16 39 -2 11 -47 160 -100 330
-53 171 -103 335 -112 366 -27 96 -29 95 -266 -146z m-47 -484 c143 -37 216
-59 193 -60 -5 0 -98 22 -205 49 -107 27 -183 49 -168 49 15 1 96 -17 180 -38z
m355 -97 c-3 -3 -12 -4 -19 -1 -8 3 -5 6 6 6 11 1 17 -2 13 -5z"/>
<path d="M4865 8753 c-674 -53 -1203 -252 -1687 -634 -203 -160 -484 -460
-655 -699 -507 -708 -686 -1616 -502 -2540 122 -608 419 -1148 875 -1590 505
-488 1094 -766 1814 -857 190 -23 590 -23 760 0 520 73 1013 276 1583 653 202
134 258 182 288 247 41 91 27 112 -110 172 -61 27 -110 50 -108 51 2 2 38 -10
80 -27 187 -72 464 -136 691 -158 141 -14 441 -14 582 0 623 61 1177 322 1614
759 428 428 672 938 746 1560 19 164 19 507 0 671 -59 487 -241 923 -544 1299
-149 185 -424 437 -624 574 l-57 39 -68 -22 c-84 -27 -178 -82 -280 -163 -120
-95 -183 -158 -183 -183 0 -16 29 -41 127 -105 608 -401 939 -884 1008 -1470
98 -824 -236 -1572 -895 -2002 -687 -450 -1521 -477 -2189 -72 -243 148 -469
362 -621 588 -342 510 -449 1299 -254 1886 67 203 204 453 331 605 74 89 78
99 51 128 -48 52 -427 277 -466 277 -41 0 -255 -327 -386 -591 -139 -279 -217
-541 -247 -827 -16 -152 -6 -571 16 -712 76 -487 241 -870 536 -1250 157 -202
409 -437 608 -567 88 -57 105 -73 77 -73 -7 0 -78 -39 -156 -86 -413 -248
-797 -418 -1071 -474 -110 -23 -378 -41 -490 -35 -208 13 -252 17 -344 31
-498 77 -942 301 -1319 664 -220 212 -355 395 -481 652 -113 231 -187 477
-227 758 -20 147 -17 576 5 720 41 266 102 460 217 695 121 250 272 463 480
679 367 380 793 604 1310 687 180 29 566 37 752 15 469 -54 874 -223 1237
-516 534 -431 828 -995 881 -1695 28 -370 -64 -833 -276 -1392 -54 -145 -59
-175 -26 -188 313 -122 402 -151 516 -165 66 -8 84 -7 102 5 26 17 127 219
202 405 86 214 152 452 189 690 15 94 18 174 18 440 -1 286 -4 342 -23 470
-107 690 -383 1244 -866 1738 -546 560 -1209 864 -2029 931 -116 10 -413 12
-512 4z m2035 -5089 c0 -2 -9 0 -20 6 -11 6 -20 13 -20 16 0 2 9 0 20 -6 11
-6 20 -13 20 -16z"/>
<path d="M7920 8683 c-324 -41 -702 -153 -970 -288 -70 -35 -86 -54 -71 -84
12 -21 157 -147 324 -280 188 -149 163 -139 249 -98 208 98 450 147 734 147
80 0 106 3 118 16 9 8 16 21 16 27 -1 40 -258 564 -280 570 -8 2 -62 -3 -120
-10z"/>
</g>
</svg>
