<svg width="1280" height="1317" viewBox="0 0 1280 1317" fill="none" xmlns="http://www.w3.org/2000/svg">
<path d="M0 0H1280V753H0V0Z" fill="url(#paint0_linear_1127_2092)"/>
<path d="M575.362 883.493C568.011 878.117 570.89 863.92 579.912 861.056C588.06 858.47 598.704 861.924 598.704 867.152C598.704 873.07 590.232 879.234 585.834 876.516C583.108 874.831 583.548 873.135 587.451 870.281C591.036 867.659 591.667 865.652 589.355 864.223C585.737 861.987 576.772 867.74 576.772 872.298C576.772 878.864 589.249 881.532 599.644 877.188C611.01 872.439 633.169 854.315 633.169 849.768C633.169 845.791 608.973 846.274 601.253 850.405C596.703 852.84 595.43 852.855 596.914 850.452C598.068 848.585 605.606 845.134 613.664 842.784C625.695 839.276 629.786 836.045 636.539 824.718C641.062 817.132 653.49 796.121 664.157 778.026C674.824 759.932 686.482 741.603 690.064 737.295L696.577 729.462L690.842 738.862C674.888 765.009 645.457 819.558 646.656 820.757C647.41 821.51 651.691 820.456 656.171 818.415C662.519 815.522 665.349 815.561 668.998 818.589C672.808 821.751 675.451 821.213 683.19 815.703C688.42 811.978 692.7 806.333 692.7 803.157C692.7 794.08 710.325 781.159 722.706 781.159C734.135 781.159 745.964 790.028 745.964 798.598C745.964 805.495 740.298 815.726 730.896 825.807C721.447 835.937 724.648 836.889 738.914 828.191C744.515 824.776 749.097 819.456 749.097 816.367C749.097 807.76 758.109 796.825 765.202 796.825C768.878 796.825 771.004 798.469 770.251 800.728C769.536 802.875 766.268 804.637 762.991 804.645C756.698 804.657 753.572 812.703 756.697 820.846C758.367 825.199 759.37 825.172 766.362 820.591C770.652 817.779 774.163 816.889 774.163 818.612C774.163 824.677 758.229 832.655 752.869 829.274C746.019 824.953 729.6 835.801 721.364 850.089C705.962 876.807 677.286 894.616 667.892 883.297C662.564 876.877 665.496 869.728 675.287 865.267C684.553 861.045 693.498 866.296 690.472 874.181C688.906 878.261 689.684 878.445 695.456 875.356C702.301 871.693 720.899 848.331 720.899 843.396C720.899 841.955 711.381 841.438 699.75 842.245C680.126 843.608 679.166 843.386 686.434 839.179C690.742 836.685 698.214 834.595 703.038 834.534C715.766 834.373 729.484 826.287 734.945 815.726C741.416 803.212 740.928 798.041 732.734 792.302C723.243 785.654 713.927 786.18 704.089 793.919C693.989 801.863 693.642 805.476 702.851 806.789C711.198 807.98 714.109 817.952 706.914 820.713C704.138 821.779 699.371 820.392 696.321 817.632C691.157 812.959 689.72 813.686 675.407 828.218L660.037 843.822L669.319 843.869C676.463 843.905 677.518 844.617 673.901 846.955C671.316 848.625 664.923 850.014 659.694 850.04C652.54 850.076 648.85 852.351 644.786 859.23C635.012 875.777 621.786 884.458 607.169 883.921C599.928 883.654 591.111 884.4 587.574 885.576C583.856 886.813 578.704 885.937 575.362 883.493ZM679.15 879.363C678.015 878.228 678.658 875.409 680.578 873.096C683.244 869.884 682.912 868.891 679.169 868.891C676.475 868.891 673.399 870.301 672.334 872.025C669.928 875.918 673.096 881.424 677.741 881.424C679.65 881.424 680.284 880.497 679.15 879.363ZM633.821 866.689C640.355 860.308 645.702 853.963 645.702 852.59C645.702 846.372 636.461 851.261 623.77 864.192C612.81 875.359 611.181 878.291 615.936 878.291C619.237 878.291 627.286 873.07 633.821 866.689ZM661.208 836.292C669.394 820.995 657.968 817.25 642.59 830.19C635.141 836.458 633.742 839.126 636.867 841.108C645.193 846.387 657.062 844.038 661.208 836.292ZM706.799 812.494C705.735 810.771 703.536 809.361 701.915 809.361C700.293 809.361 698.966 810.771 698.966 812.494C698.966 814.217 701.164 815.627 703.851 815.627C706.538 815.627 707.864 814.217 706.799 812.494ZM754.244 861.023C755.583 857.533 754.631 856.837 750.623 858.375C745.513 860.335 745.521 859.949 750.741 851.983C754.362 846.457 757.364 844.571 759.361 846.569C762.96 850.167 759.744 865.758 755.404 865.758C753.767 865.758 753.245 863.627 754.244 861.023ZM492.176 857.487C492.176 856.385 494.643 853.635 497.659 851.377C502.646 847.642 502.505 847.431 496.092 849.047C492.215 850.024 489.043 849.908 489.043 848.79C489.043 847.672 492.215 845.57 496.092 844.119C505.31 840.67 509.162 846.574 502.498 853.937C497.49 859.471 492.176 861.299 492.176 857.487ZM507.842 853.852C507.842 850.597 514.63 843.826 517.895 843.826C519.288 843.826 518.667 846.646 516.514 850.092C512.561 856.423 507.842 858.469 507.842 853.852ZM764.763 848.711C764.763 844.504 766.173 840.191 767.896 839.126C769.724 837.997 771.03 841.183 771.03 846.774C771.03 852.046 769.62 856.359 767.896 856.359C766.173 856.359 764.763 852.917 764.763 848.711ZM438.324 847.952C440.586 847.047 443.288 847.158 444.329 848.199C445.37 849.24 443.521 849.981 440.217 849.845C436.567 849.694 435.825 848.952 438.324 847.952ZM458.596 845.589C472.819 840.515 493.282 827.016 488.975 825.549C487.289 824.974 485.909 822.356 485.909 819.73C485.909 816.592 484.148 815.632 480.768 816.929C473.617 819.674 463.977 816.106 463.977 810.716C463.977 807.675 460.441 806.227 453.011 806.227C443.114 806.227 440.509 803.942 441.613 796.227C441.783 795.035 435.606 793.113 427.885 791.955C416.961 790.317 413.846 788.539 413.846 783.939C413.846 780.079 411.629 778.029 407.455 778.029C398.097 778.029 379.798 767.879 363.715 753.769C355.961 746.965 347.501 740.587 344.916 739.595C341.461 738.27 341.876 737.69 346.483 737.406C351.141 737.119 349.636 735.378 340.621 730.623C325.105 722.439 300.681 697.406 301.777 690.81C302.315 687.574 299.163 684.591 293.043 682.541C278.989 677.832 266.746 669.012 263.071 660.946C260.573 655.463 257.85 654.149 251.052 655.147C246.218 655.856 241.215 654.741 239.933 652.667C238.212 649.883 240.162 649.46 247.395 651.048C252.781 652.231 257.187 652.312 257.187 651.228C257.187 645.625 247.157 631.038 242.347 629.645C239.073 628.698 239.997 628.281 244.613 628.625C250.655 629.073 255.317 634.052 265.374 650.794C279.227 673.856 284.734 678.91 291.468 674.748C294.625 672.797 293.253 670.87 286.064 667.152C280.765 664.412 275.463 658.983 274.281 655.086C273.099 651.19 269.342 644.95 265.931 641.219C259.365 634.038 260.525 620.7 267.53 622.835C269.596 623.465 275.41 624.891 280.45 626.005C288.937 627.881 289.284 627.614 285.149 622.387C280.909 617.026 281.077 616.993 288.519 621.728C295.876 626.409 299.41 631.003 315.281 656.518L321.677 666.801L358.362 665.764C378.539 665.193 395.047 665.356 395.047 666.126C395.047 666.897 377.07 669.181 355.099 671.203C308.898 675.454 301.051 676.834 301.051 680.711C301.051 685.826 318.051 687.398 340.28 684.34C352.308 682.685 376.953 680.624 395.047 679.761L427.946 678.19L384.864 683.216C361.169 685.98 341.783 689.204 341.783 690.38C341.783 693.412 355.177 706.899 362.126 710.866C370.22 715.485 366.116 724.765 355.981 724.765C351.618 724.765 348.049 726.024 348.049 727.563C348.049 734.903 361.509 733.25 397.373 721.506C418.858 714.47 437.025 709.301 437.743 710.019C438.462 710.738 426.047 715.976 410.156 721.661C386.821 730.008 382.537 732.468 387.887 734.447C391.531 735.795 395.69 738.78 397.129 741.08C398.569 743.381 403.624 746.965 408.363 749.046C419.788 754.062 419.28 761.698 407.184 766.784C395.228 771.812 399.745 775.751 417.466 775.751C431.722 775.751 434.952 773.617 429.904 767.536C421.153 756.991 433.889 746.983 472.796 733.831C511.094 720.886 511.809 722.938 474.145 737.703C454.753 745.305 440.721 752.715 438.752 756.395C435.023 763.363 437.194 768.63 443.796 768.63C446.28 768.63 448.311 770.04 448.311 771.763C448.311 773.486 446.263 774.896 443.759 774.896C437.684 774.896 423.246 781.59 423.246 784.407C423.246 789.248 442.044 790.19 450.512 785.773C461.806 779.882 473.377 779.833 473.377 785.679C473.377 792.278 467.377 794.904 465.208 789.253C462.609 782.478 451.444 788.714 451.444 796.94C451.444 804.613 462.627 805.289 470.574 798.097C477.949 791.422 496.876 790.479 496.876 796.786C496.876 799.347 494.202 801.958 490.935 802.587C486.393 803.462 485.486 802.451 487.084 798.288C488.999 793.296 488.583 793.236 482.058 797.561C478.145 800.155 474.488 804.576 473.93 807.386C472.473 814.735 488.537 813.976 498.442 806.228C510.844 796.527 515.293 798.973 503.975 809.269C491.978 820.181 498.702 822.335 511.247 811.598C543.201 784.248 610.521 728.668 614.37 726.458C620.754 722.794 619.73 723.748 589.537 749.607C575.016 762.043 553.867 780.778 542.539 791.24C524.932 807.5 523.231 809.951 530.824 808.118C550.107 803.464 558.447 815.153 545.255 828.345C540.878 832.722 535.667 834.485 529.047 833.828C519.136 832.844 512.592 825.027 521.68 825.027C524.409 825.027 526.641 826.535 526.641 828.378C526.641 830.221 529.813 831.278 533.691 830.728C538.738 830.011 541.022 827.279 541.732 821.11C542.642 813.199 541.85 812.494 532.019 812.494C524.964 812.494 516.628 815.889 507.567 822.453C488.143 836.524 461.408 850.117 453.476 849.955C448.933 849.86 450.597 848.443 458.596 845.589ZM404.12 762.631C406.646 761.031 407.636 757.628 406.463 754.572C404.8 750.238 402.026 749.679 391.124 751.48C374.57 754.215 373.671 755.05 381.176 760.729C388.031 765.915 397.672 766.714 404.12 762.631ZM388.091 744.067C389.959 738.461 374.382 733.837 365.282 737.297C355.389 741.058 355.47 742.326 365.947 747.816C374.774 752.441 385.929 750.553 388.091 744.067ZM355.882 715.365C355.882 711.981 351.715 710.398 340.999 709.71C325.903 708.741 322.967 710.962 330.02 718.015C335.483 723.478 355.882 721.387 355.882 715.365ZM337.269 702.532C341.208 696.158 331.207 690.065 320.364 692.234C310.694 694.168 310.472 694.529 315.525 700.113C321.344 706.543 333.925 707.942 337.269 702.532ZM316.717 668.646C316.717 665.295 298.651 649.568 294.801 649.568C288.809 649.568 282.252 653.632 282.252 657.345C282.252 659.53 286.835 663.577 292.435 666.338C303.652 671.868 316.717 673.11 316.717 668.646ZM301.051 646.435C301.051 644.712 298.232 640.482 294.785 637.036C287.555 629.806 269.72 628.418 269.72 635.085C269.72 641.531 276.271 645.766 288.531 647.244C294.556 647.971 299.837 648.791 300.268 649.067C300.699 649.343 301.051 648.159 301.051 646.435ZM859.926 823.555C851.203 817.177 857.392 801.88 869.248 800.512C876.824 799.639 877.91 800.477 877.023 806.534C876.456 810.404 874.015 814.221 871.6 815.018C868.413 816.07 867.7 814.584 869.003 809.602C870.171 805.135 869.516 803.164 867.129 803.96C860.772 806.079 862.848 817.194 869.6 817.194C884.227 817.194 899.705 773.767 888.921 762.984C884.395 758.458 883.824 758.434 883.824 762.773C883.824 769.482 872.514 779.169 867.104 777.093C864.492 776.091 861.022 778.5 858.625 782.979C854.36 790.949 846.263 793.333 846.173 786.646C846.15 784.492 843.186 787.311 839.599 792.912C835.818 798.816 830.453 803.095 826.83 803.095C823.394 803.095 816.988 805.922 812.596 809.377C806.361 814.282 803.644 814.859 800.213 812.012C796.744 809.133 794.818 809.79 791.079 815.129C785.719 822.781 778.765 823.975 776.341 817.659C775.447 815.329 776.602 807.222 778.907 799.643C781.213 792.064 786.933 769.266 791.62 748.982C796.306 728.697 800.741 712.701 801.475 713.435C802.209 714.169 799.322 730.765 795.06 750.316C785.227 795.424 782.787 812.494 786.173 812.494C790.313 812.494 798.221 802.397 800.876 793.72C803.015 786.73 802.725 786.36 798.114 790.187C794.647 793.064 792.962 793.29 792.962 790.877C792.962 786.96 820.172 768.63 825.988 768.63C827.969 768.63 832.275 765.679 835.558 762.073C840.234 756.934 842.259 747.268 844.912 717.425L848.297 679.335L848.214 726.421C848.166 752.319 849.238 775.299 850.591 777.488C855.101 784.785 861.857 775.158 861.348 762.16C860.855 749.601 865.875 740.432 873.242 740.432C875.616 740.432 877.558 742.547 877.558 745.132C877.558 747.742 874.773 749.831 871.292 749.831C863.924 749.831 863.215 755.589 869.531 764.115C873.984 770.125 874.094 770.123 878.831 763.93C881.47 760.48 883.815 750.623 884.049 741.998L884.473 726.332L887.697 738.865C889.471 745.758 891.516 752.062 892.243 752.873C895.385 756.381 899.399 743.981 899.443 730.632C899.49 716.035 905.374 706.556 911.886 710.581C917.032 713.761 915.856 722.571 910.557 720.538C904.15 718.079 901.679 723.411 905.723 730.967C909.521 738.065 916.694 739.283 920.303 733.443C921.613 731.322 922.363 721.423 921.969 711.445C921.41 697.28 922.348 692.882 926.248 691.385C928.996 690.331 932.887 691.112 934.896 693.12C937.676 695.9 936.878 697.209 931.552 698.601C923.688 700.658 922.268 709.567 928.924 715.09C932.296 717.889 934.439 717.569 938.324 713.684C944.898 707.11 944.673 701.363 936.966 679.041C928.654 654.966 914.467 599.083 916.221 597.329C916.971 596.58 919.356 603.445 921.523 612.585C928.645 642.627 946.845 694.931 951.411 698.479C956.923 702.761 957.346 710.13 951.972 708.256C949.818 707.506 945.923 711.265 943.317 716.612C940.531 722.326 936.156 726.339 932.703 726.349C929.472 726.358 925.77 729.227 924.476 732.724C921.261 741.415 913.036 747.757 907.657 745.692C901.864 743.469 897.324 755.594 895.276 778.757C892.531 809.819 873.728 833.648 859.926 823.555ZM814.492 802.013C816.416 799.694 818.912 793.188 820.039 787.555C821.977 777.865 821.728 777.505 815.429 780.876C807.019 785.377 801.818 794.9 804.275 801.301C806.592 807.339 809.881 807.568 814.492 802.013ZM839.535 785.542C841.492 781.248 843.093 774.948 843.093 771.543C843.093 765.652 842.712 765.601 835.223 770.508C827.154 775.795 822.17 787.723 825.666 793.38C828.641 798.195 835.549 794.291 839.535 785.542ZM612.937 822.11C610.797 818.647 615.74 814.908 618.633 817.801C621.612 820.78 621.057 825.027 617.688 825.027C616.066 825.027 613.929 823.714 612.937 822.11ZM405.48 808.054C407.409 803.027 400.408 799.303 393.797 801.84C391.387 802.765 388.581 802.174 387.563 800.526C386.545 798.878 389.873 796.919 394.959 796.173C400.735 795.325 404.795 796.349 405.774 798.902C406.665 801.222 409.56 802.138 412.471 801.021C416.986 799.288 417.097 799.857 413.403 805.774C408.72 813.272 402.827 814.968 405.48 808.054ZM391.914 806.228C398.05 802.262 402.198 802.262 399.747 806.228C398.682 807.951 395.426 809.339 392.512 809.313C387.946 809.266 387.863 808.845 391.914 806.228ZM802.609 704.138C802.759 700.488 803.502 699.746 804.502 702.245C805.406 704.507 805.295 707.209 804.254 708.25C803.213 709.291 802.473 707.442 802.609 704.138ZM957.827 700.594C956.76 699.527 955.888 695.907 955.888 692.549C955.888 689.191 950.248 668.802 943.355 647.241C936.462 625.68 930.851 605.751 930.887 602.955C930.922 600.158 935.2 610.419 940.393 625.756C952.605 661.82 954.478 665.211 957.292 656.345C958.475 652.618 961.171 649.568 963.284 649.568C965.396 649.568 968.474 644.986 970.122 639.386C974.343 625.049 984.418 625.462 989.272 640.168L992.891 651.134L996.249 642.506C1000.52 631.521 994.879 616.312 988.495 621.611C977.7 630.57 960.547 605.147 957.343 575.438C955.843 561.529 956.199 562.071 961.636 581.986C969.764 611.755 985.445 624.41 990.737 605.471C992.679 598.524 992.888 598.447 993.174 604.573C993.345 608.26 996.205 614.604 999.528 618.673L1005.57 626.069L1008.73 618.236C1011.83 610.536 1011.89 610.574 1012.09 620.476C1012.23 627.476 1010.37 631.572 1006.02 633.902C1002.57 635.747 999.752 639.75 999.752 642.799C999.752 653.128 962.17 704.937 957.827 700.594ZM972.072 666.688C965.308 651.842 956.087 662.519 960.497 680.09L962.529 688.184L969.171 681.542C974.925 675.788 975.313 673.801 972.072 666.688ZM987.12 650.735C987.258 641.474 978.4 634.201 974.496 640.37C970.696 646.375 970.846 650.854 975.165 660.332C978.504 667.66 979.087 667.848 982.898 662.83C985.166 659.844 987.065 654.402 987.12 650.735ZM436.621 675.596C439.67 674.801 443.9 674.853 446.021 675.714C448.142 676.573 445.648 677.222 440.478 677.159C435.309 677.099 433.573 676.39 436.621 675.596ZM1020.67 651.794C1019.18 646.123 1019.87 640.916 1022.63 636.965C1026.39 631.6 1027.61 631.398 1032.9 635.266C1036.21 637.681 1037.89 640.678 1036.64 641.926C1035.39 643.174 1032.38 642.549 1029.96 640.535C1026.49 637.655 1025.1 638.041 1023.45 642.343C1022.3 645.35 1022.36 646.808 1023.58 645.584C1026.76 642.4 1034.24 649.386 1034.12 655.435C1034.03 659.864 1033.45 659.785 1029.69 654.826C1025.5 649.304 1025.32 649.304 1024.16 654.826C1023.26 659.139 1022.4 658.397 1020.67 651.794ZM252.314 614.912C247.314 609.388 247.131 608.039 251.045 605.584C253.561 604.005 257.735 603.318 260.32 604.056C262.905 604.794 282.644 607.032 304.185 609.028C325.725 611.024 344.014 613.286 344.827 614.053C345.64 614.82 326.017 614.444 301.222 613.217C259.995 611.176 256.309 611.429 258.131 616.178C260.759 623.026 259.386 622.727 252.314 614.912ZM355.099 616.077C358.115 615.289 363.049 615.289 366.065 616.077C369.081 616.866 366.613 617.51 360.582 617.51C354.551 617.51 352.083 616.865 355.099 616.077ZM1006.25 600.582C1002.67 596.042 999.752 588.948 999.752 584.818C999.752 576.147 1008.48 571.373 1012.52 577.832C1014.48 580.958 1013.49 582.491 1009.07 583.207C1005.67 583.757 1002.89 585.44 1002.89 586.945C1002.89 589.937 1015.33 599.438 1019.25 599.438C1023.87 599.438 1021.67 581.933 1015.54 569.907C1010.95 560.9 1010.19 556.35 1012.56 551.924C1016.04 545.42 1021.68 546.937 1021.68 554.377C1021.68 556.962 1020.27 558.205 1018.55 557.14C1013.03 553.726 1015.21 563.81 1021.16 569.194C1032.27 579.255 1034.82 564.984 1024.83 548.599C1015.72 533.655 1017.14 526.973 1026.5 540.747C1034.51 552.537 1040.48 555.822 1040.48 548.438C1040.48 543.441 1034.63 534.827 1012.31 507.009C1002.63 494.946 986.701 473.797 976.911 460.011C967.122 446.225 956.154 431.068 952.539 426.329C948.924 421.59 946.656 417.713 947.501 417.713C948.345 417.713 961.707 434.28 977.193 454.528C1009.26 496.458 1029.32 519.207 1026.57 510.528C1022.38 497.292 1038.35 491.296 1048.35 502.349C1057.55 512.513 1055.15 537.353 1045.91 527.557C1042.85 524.306 1042.86 523.161 1045.96 522.022C1051.82 519.874 1050.68 509.226 1044.23 505.771C1041.12 504.108 1036.7 503.907 1034.4 505.325C1028.45 509.004 1032.35 521.6 1044.89 539.241C1058.76 558.736 1067.35 576.406 1069.96 590.822C1072.86 606.784 1069.75 605.714 1065.41 589.255C1063.48 581.931 1058.19 569.594 1053.65 561.84C1046.97 550.427 1045.16 548.935 1044.17 554.007C1043.49 557.453 1041.87 561.683 1040.57 563.406C1039.27 565.13 1037.28 570.417 1036.15 575.156C1035.02 579.895 1032.71 583.772 1031.02 583.772C1029.33 583.772 1027.95 586.685 1027.95 590.245C1027.95 599.211 1022.33 608.838 1017.1 608.838C1014.7 608.838 1009.82 605.123 1006.25 600.582ZM215.386 600.458C212.252 597.324 216.433 593.172 222.722 593.172C225.965 593.172 229.633 594.934 230.872 597.088C232.112 599.242 232.009 599.997 230.645 598.765C229.28 597.533 225.715 597.836 222.721 599.438C219.728 601.04 216.427 601.499 215.386 600.458ZM241.632 594.168C237.996 589.546 235.759 583.845 236.659 581.499C239.601 573.832 222.419 552.727 205.228 542.891C178.664 527.693 163.602 505.308 172.624 494.436C177.82 488.176 180.186 488.525 190.05 497.01C196.404 502.476 197.927 505.921 196.28 511.109C193.791 518.953 187.596 520.03 182.222 513.555C179.442 510.205 179.434 508.589 182.186 506.887C184.186 505.651 187.053 506.582 188.557 508.958C190.709 512.356 191.302 512.087 191.34 507.694C191.399 500.544 182.218 496.902 178.587 502.636C174.426 509.206 174.896 510.55 185.608 522.751C193.495 531.734 214.958 546.174 220.422 546.174C221.019 546.174 219.902 534.211 217.941 519.589C215.544 501.716 212.406 490.784 208.365 486.232C204.299 481.652 203.807 479.925 206.846 480.895C213.838 483.125 222.721 502.963 224.876 521.159C226.295 533.138 229.344 540.533 235.981 548.092C246.259 559.798 263.68 565.017 271.318 558.678C283.193 548.823 271.122 517.976 255.391 517.976C246.987 517.976 244.886 525.592 252.485 528.508C258.519 530.824 258.599 536.775 252.591 536.775C250.067 536.775 246.493 533.955 244.648 530.508C240.34 522.458 245.641 511.709 253.918 511.709C263.287 511.709 278.671 526.737 282.547 539.677C286.979 554.469 282.859 563.511 270.592 565.911C260.355 567.914 236.069 558.223 233.31 551.034C232.284 548.361 230.221 546.174 228.725 546.174C227.228 546.174 227.376 549.782 229.053 554.191C234.094 567.451 242.702 577.302 249.348 577.419C265.4 577.701 285.542 599.438 269.751 599.438C265.161 599.438 263.718 597.586 264.268 592.399C264.828 587.111 263.169 585.096 257.603 584.301C246.455 582.708 242.358 588.581 249.282 596.231C252.437 599.718 253.493 602.571 251.628 602.571C249.763 602.571 245.268 598.79 241.632 594.168ZM912.27 588.211C912.421 584.561 913.163 583.819 914.163 586.318C915.068 588.58 914.957 591.282 913.916 592.323C912.875 593.364 912.134 591.515 912.27 588.211ZM203.923 586.694C203.923 584.692 206.752 584.194 210.972 585.452C217.907 587.519 217.92 587.474 211.756 582.63C204.454 576.891 206.47 576.247 218.007 580.633C222.531 582.353 225.36 585.173 224.293 586.9C221.691 591.11 203.923 590.93 203.923 586.694ZM924.803 581.945C924.954 578.295 925.696 577.552 926.696 580.052C927.601 582.314 927.489 585.016 926.449 586.057C925.408 587.098 924.667 585.248 924.803 581.945ZM1066.24 548.004C1061.81 538.293 1068.85 534.567 1076.22 542.716C1083.26 550.498 1082.45 554.529 1075.17 547.938C1069.36 542.685 1069.19 542.729 1070.83 549.019C1073.16 557.9 1070.48 557.309 1066.24 548.004ZM1069.31 533.015C1063.32 527.024 1064.96 523.818 1071.82 528.102C1078.15 532.056 1080.19 536.775 1075.58 536.775C1074.2 536.775 1071.38 535.083 1069.31 533.015ZM317.986 454.528L312.018 447.479L319.067 453.447C322.945 456.73 326.117 459.903 326.117 460.497C326.117 463.004 323.595 461.153 317.986 454.528ZM302.623 442.787C300.624 439.553 239.616 389.515 237.671 389.515C237.067 389.515 236.63 393.392 236.698 398.131C236.804 405.573 235.586 406.747 227.76 406.747C216.175 406.747 205.363 393.519 208.603 383.309C210.259 378.093 211.707 377.247 214.391 379.93C217.074 382.614 216.8 384.277 213.296 386.576C209.336 389.174 209.771 390.604 216.147 395.948C225.024 403.388 230.181 402.523 231.533 393.366C232.236 388.597 226.662 381.211 211.614 366.98C192.949 349.327 176.12 325.411 179.784 321.747C180.533 320.997 182.83 324.447 184.887 329.413C186.944 334.379 194.918 344.616 202.607 352.162L216.585 365.881L214.562 355.766C213.449 350.202 213.842 345.65 215.435 345.65C217.028 345.65 217.755 340.715 217.051 334.684C216.283 328.106 217.133 323.718 219.168 323.718C221.248 323.718 221.859 320.185 220.743 314.607C219.329 307.536 220.334 304.741 225.23 302.12C230.446 299.329 231.247 296.577 229.858 286.223C228.498 276.08 229.254 273.288 233.84 271.528C237.778 270.017 240.898 271.457 244.085 276.258C248.324 282.643 249.085 282.783 254.229 278.128C259.338 273.505 260.425 273.511 267.574 278.199C276.686 284.169 287.163 299.34 300.719 326.195C315.116 354.715 312.418 354.132 296.524 325.288C280.722 296.61 266.473 281.161 258.609 284.179C254.685 285.684 253.92 288.313 255.527 294.768C257.528 302.804 257.189 302.651 250.252 292.389C246.174 286.358 240.78 281.423 238.264 281.423C231.024 281.423 233.809 297.599 242.911 308.416C251.351 318.447 252.998 325.201 247.788 328.421C242.169 331.893 237.726 326.728 241.951 321.637C245.051 317.902 244.926 316.413 241.32 314.131C226.68 304.867 220.186 317.662 233.605 329.33C242.72 337.255 246.974 350.854 241.919 355.909C239.3 358.528 237.444 358.495 234.731 355.782C231.944 352.995 232.316 351.649 236.298 350.121C243.636 347.305 242.808 343.508 233.528 337.427C216.492 326.265 217.649 346.952 234.934 362.596C238.557 365.874 241.521 370.025 241.521 371.819C241.521 373.614 236.872 370.575 231.189 365.067C219.146 353.395 216.404 352.611 218.73 361.506C219.658 365.055 236.798 381.8 256.818 398.716C292.219 428.628 310.409 445.916 306.483 445.916C305.423 445.916 303.685 444.506 302.623 442.787ZM1087.29 414.388C1078.06 405.155 1080.31 394.179 1091.4 394.338C1096.14 394.409 1100.01 393.552 1100.01 392.439C1100.01 388.332 1078.36 362.218 1070.9 357.331L1063.19 352.279L1061.02 374.325C1059.35 391.278 1059.87 397.569 1063.29 401.559C1071.52 411.179 1073.31 416.509 1066.21 410.285C1057.38 402.547 1052.92 388.191 1053.72 370.089C1054.26 357.791 1052.78 353.399 1044.76 343.457C1033.68 329.724 1022.38 326.832 1014.37 335.683C1007.1 343.714 1006.75 367.273 1013.74 377.945C1019.82 387.212 1030.18 391.675 1034.83 387.026C1038.83 383.026 1036.95 373.19 1031.86 371.497C1029.28 370.636 1028.65 372.023 1030.01 375.581C1031.47 379.368 1030.77 380.533 1027.67 379.5C1021.57 377.468 1020.39 368.751 1025.93 366.625C1037.14 362.322 1047.19 383.717 1037.05 390.316C1022.3 399.924 1002.31 378.395 1001.96 352.523C1001.68 331.719 1006.76 323.718 1020.23 323.718C1028.89 323.718 1033.72 326.418 1044.03 337.034L1056.97 350.35L1054.66 339.384C1051.11 322.615 1041.01 308.356 1029.16 303.404C1023.27 300.944 1017.21 295.696 1015.7 291.742C1012.29 282.857 1016.85 276.799 1022.47 282.751C1025.6 286.076 1025.58 287.198 1022.34 288.382C1016 290.7 1024.14 298.652 1032.85 298.652C1044.44 298.652 1045.5 292.156 1035.39 283.118C1027.61 276.174 1019.25 273.693 982.454 267.424C958.418 263.328 940.332 259.45 942.263 258.807C944.194 258.164 959.314 259.816 975.862 262.479C1008.62 267.749 1034.22 268.774 1034.22 264.814C1034.22 263.435 1033.16 260.919 1031.87 259.223C1030.58 257.527 1032.93 259.712 1037.09 264.079C1043.62 270.926 1043.94 272.162 1039.37 273.047C1034.79 273.934 1035.15 275.359 1041.98 283.471C1050.41 293.488 1052.3 303.592 1046.13 305.649C1043.58 306.498 1044.62 310.065 1049.37 316.737C1053.23 322.147 1057.9 330.942 1059.76 336.28C1061.62 341.618 1070.88 353.303 1080.34 362.246C1104.91 385.48 1115.12 407.617 1105.65 417.087C1100.2 422.542 1094.62 421.723 1087.29 414.388ZM1099.9 408.52C1103.89 401.071 1104.14 395.634 1100.2 401.846C1097.85 405.574 1096.51 405.642 1092.42 402.245C1088.21 398.751 1087.48 399.051 1087.48 404.274C1087.48 415.641 1094.76 418.129 1099.9 408.52ZM185.907 381.037C177.594 379.436 176.419 373.922 184.34 373.684C188.943 373.546 188.692 372.731 182.774 368.603C178.896 365.898 175.724 362.274 175.724 360.55C175.724 358.826 178.042 359.34 180.876 361.691C185.477 365.51 185.803 365.132 183.922 358.158L181.816 350.349L187.077 357.537C189.97 361.49 192.665 368.892 193.066 373.986C193.466 379.08 193.606 383.056 193.375 382.821C193.144 382.587 189.784 381.784 185.907 381.037ZM302.464 276.641C284.798 236.934 279.119 227.342 279.119 237.215C279.119 239.815 277.127 243.071 274.691 244.449C272.256 245.827 269.788 251.185 269.208 256.354C267.739 269.438 255.728 271.289 250.253 259.275L246.393 250.801L242.531 259.844C240.408 264.818 238.607 266.644 238.529 263.902C238.236 253.597 247.419 229.581 258.84 210.781L270.662 191.32L277.722 209.738C281.605 219.867 293.322 247.833 303.76 271.883C314.197 295.933 322.279 316.067 321.721 316.626C321.162 317.185 312.496 299.191 302.464 276.641ZM266.455 254.004C266.384 250.127 263.742 242.107 260.587 236.183C254.855 225.421 254.848 225.418 252.285 233.049C249.267 242.037 250.248 251.655 254.743 257.138C259.928 263.462 266.598 261.678 266.455 254.004ZM275.943 228.754C275.884 218.462 272.491 207.79 269.287 207.79C267.728 207.79 264.872 211.257 262.942 215.494C260.125 221.677 260.475 224.792 264.713 231.26C270.643 240.311 276.008 239.114 275.943 228.754ZM1072.41 308.501C1068.48 305.537 1066.27 302.109 1067.5 300.882C1071.03 297.344 1083.76 298.293 1086.22 302.279C1087.76 304.777 1086.3 305.341 1081.53 304.092C1075.75 302.582 1075.22 303.035 1078.35 306.807C1084 313.615 1080.51 314.61 1072.41 308.501ZM1063.38 293.949C1060.43 290.752 1061.26 289.606 1067.38 288.436C1076.83 286.63 1080.33 290.974 1072.69 295.028C1068.86 297.058 1065.95 296.718 1063.38 293.949ZM208.846 271.796C205.528 269.37 203.802 266.397 205.009 265.189C206.217 263.982 209.555 265.343 212.427 268.216C219.191 274.979 216.66 277.51 208.846 271.796ZM207.415 259.233C203.723 254.538 201.441 249.959 202.344 249.055C203.248 248.151 206.018 250.129 208.499 253.45C212.839 259.258 212.943 259.22 211.234 252.437C208.763 242.627 212.794 243.59 216.649 253.731C221.324 266.026 215.492 269.501 207.415 259.233ZM1004.26 254.575C1001.04 251.012 995.529 243.187 992.025 237.187L985.653 226.277L952.96 224.811C934.979 224.005 919.587 222.665 918.756 221.834C917.925 221.003 935.457 220.224 957.715 220.102C979.974 219.982 1001 218.785 1004.43 217.444C1010.14 215.214 1009.82 214.563 1000.67 209.831C994.002 206.383 982.512 204.596 966.226 204.476C952.785 204.381 936.149 203.065 929.256 201.562C920.23 199.592 923.956 199.318 942.572 200.58L968.42 202.332V194.455C968.42 189.455 971.358 184.653 976.463 181.308C982.945 177.061 983.782 175.167 980.779 171.548C976.348 166.21 978.982 165.783 987.668 170.432C991.135 172.287 993.243 175.705 992.351 178.028C991.46 180.351 994.26 184.563 998.573 187.389C1003.94 190.903 1006.11 194.834 1005.46 199.825C1004.84 204.526 1007.28 209.544 1012.31 213.924C1017.97 218.853 1018.97 221.196 1015.95 222.435C1013.07 223.618 1014.92 226.768 1021.98 232.657C1029.3 238.768 1031.57 242.743 1030.03 246.754C1028.31 251.241 1025.73 251.936 1016.95 250.288C1005.72 248.181 1003.16 250.678 1009.78 257.294C1011.85 259.362 1012.77 261.054 1011.83 261.054C1010.89 261.054 1007.48 258.139 1004.26 254.575ZM1020.12 239.122C1020.12 234.276 997.615 221.415 994.532 224.499C993.581 225.45 995.928 230.617 999.747 235.982C1007.05 246.243 1020.12 248.257 1020.12 239.122ZM992.056 198.338C999.006 195.696 999.776 194.361 996.576 190.505C992.015 185.01 986.017 184.604 977.412 189.209C972.411 191.886 971.898 193.464 974.868 197.042C979.294 202.375 981.084 202.51 992.056 198.338ZM923.772 255.846C925.927 254.977 929.451 254.977 931.606 255.846C933.76 256.715 931.997 257.426 927.689 257.426C923.381 257.426 921.618 256.714 923.772 255.846ZM1042.5 250.871C1040.08 246.994 1037.22 240.053 1036.16 235.447C1035.09 230.841 1030.39 222.521 1025.71 216.959C1017.68 207.411 1017.61 207.063 1024.44 210.723C1028.43 212.855 1033.99 218.611 1036.8 223.513C1040.17 229.379 1045.39 233.078 1052.06 234.329C1057.63 235.375 1063.18 237.826 1064.39 239.776C1065.74 241.972 1064.89 242.685 1062.15 241.651C1042.31 234.179 1038.54 236.749 1048.49 250.957C1051.18 254.787 1051.91 257.921 1050.13 257.921C1048.35 257.921 1044.91 254.749 1042.5 250.871ZM382.494 243.56C382.434 225.92 372.862 118.793 370.346 107.597C366.502 90.4892 364.646 89.0952 360.288 100.044C355.631 111.745 355.77 117.374 361.812 161.736C364.582 182.072 366.674 203.221 366.462 208.734C366.248 214.246 364.837 209.591 363.323 198.39C361.81 187.189 359.037 168.508 357.161 156.878C353.774 135.878 353.711 135.779 348.126 142.677C343.405 148.506 341.717 148.972 337.623 145.574C334.941 143.348 332.311 137.049 331.781 131.577C330.854 122.009 330.668 121.887 326.942 128.393C323.817 133.849 323.923 137.209 327.489 145.743C332.494 157.722 349.385 235.698 347.403 237.679C346.694 238.388 342.905 225.257 338.984 208.497C329.069 166.111 329.46 167.175 324.483 169.085C322.036 170.024 316.303 167.856 311.742 164.268C307.18 160.68 302.204 158.513 300.684 159.453C297.565 161.38 296.852 153.503 299.872 150.484C300.946 149.41 306.46 152.065 312.123 156.385C323.606 165.143 327.828 162.566 322.963 149.77C320.854 144.221 318.179 141.964 315.108 143.143C312.41 144.178 310.452 143.154 310.452 140.712C310.452 135.846 318.041 128.694 320.547 131.2C321.474 132.127 323.094 129.452 324.147 125.255C326.412 116.231 348.746 95.5152 350.508 100.803C352.663 107.267 356.12 104.591 360.204 93.2968C363.39 84.4852 365.456 82.5924 370.233 84.1084C374.227 85.3761 376.249 84.5311 376.249 81.5924C376.249 76.4505 386.71 66.1586 390.739 67.3371C396.636 69.0619 416.22 44.6694 420.119 30.7451C427.193 5.47798 450.389 -20.4131 461.97 -15.969C474.124 -11.305 463.667 11.7039 450.271 9.77232C445.265 9.04996 443.797 6.87114 444.355 0.98923C445.083 -6.68685 445.004 -6.716 440.082 -0.567179C433.277 7.9337 419.37 38.0085 420.649 41.457C422.271 45.8316 454.578 32.4588 454.578 27.4126C454.578 24.9481 455.944 22.9317 457.613 22.9317C459.282 22.9317 459.78 25.193 458.719 27.9568C457.572 30.9485 463.297 28.3074 472.869 21.4311C485.116 12.6322 489.863 6.82279 492.792 -2.95216C497.103 -17.3434 514.466 -36.5988 523.131 -36.5988C526.255 -36.5988 533.324 -38.85 538.839 -41.6014C552.17 -48.2516 564.239 -45.2841 564.239 -35.3561C564.239 -26.0442 557.326 -20.1484 547.963 -21.4757C542.841 -22.2017 540.807 -24.4953 540.969 -29.3626C541.238 -37.4392 535.402 -35.3667 524.658 -23.5705C518.45 -16.755 507.842 1.61114 507.842 5.54362C507.842 9.89117 517.656 6.51229 526.401 -0.845719C531.703 -5.30706 536.041 -7.52419 536.041 -5.77289C536.041 -1.9394 522.05 9.44512 514.326 11.8966C506.806 14.2833 504.712 19.6133 487.305 80.6723C478.988 109.845 471.73 132.353 471.176 130.691C470.622 129.029 475.12 109.602 481.173 87.5196C493.869 41.1947 493.592 42.922 487.516 47.9641C484.953 50.0911 480.582 50.9587 477.802 49.892C472.782 47.9654 460.11 60.4962 458.927 68.5573C456.383 85.8877 437.958 104.395 423.247 104.395C407.983 104.395 402.284 82.9927 412.36 63.5077C418.217 52.1812 414.371 51.5328 404.384 62.1631C398.7 68.2144 397.139 73.0469 397.716 82.8176C398.496 96.0452 394.284 104.395 386.831 104.395C384.457 104.395 382.515 102.185 382.515 99.4838C382.515 95.9987 384.334 95.1502 388.781 96.5617C396.324 98.9558 397.484 90.1255 390.823 81.0158C381.581 68.3775 371.997 90.9486 376.461 114.84C379.815 132.797 386.336 245.744 384.144 247.936C383.248 248.833 382.505 246.863 382.494 243.56ZM347.423 135.1C351.502 131.02 352.341 120.458 349.229 112.349C347.44 107.686 346.78 107.706 341.396 112.578C333.398 119.816 333.603 138.86 341.679 138.86C342.771 138.86 345.355 137.168 347.423 135.1ZM438.998 92.9701C456.157 81.545 460.522 66.7964 446.745 66.7964C441.799 66.7964 438.912 65.0274 438.912 61.9982C438.912 55.4706 447.895 52.4962 454.726 56.762C461.404 60.9331 464.611 57.8763 471.927 40.3686C478.391 24.8974 475.598 22.7648 463.744 34.1211C456.223 41.3267 454.669 41.9479 456.475 37.0258C458.644 31.1166 458.435 31.0553 452.759 35.9351C449.451 38.7792 441.746 43.1692 435.636 45.6906C416.601 53.5455 406.07 76.4757 415.14 90.3175C421.094 99.4052 428.154 100.191 438.998 92.9701ZM451.444 62.2815C451.444 58.9745 445.431 57.5851 443.643 60.479C442.561 62.2303 443.873 63.6632 446.56 63.6632C449.246 63.6632 451.444 63.0415 451.444 62.2815ZM496.297 29.8236C503.582 17.3506 501.843 14.6998 490.063 20.3202C483.981 23.2224 480.891 27.3204 480.192 33.4127C478.781 45.7066 488.254 43.5953 496.297 29.8236ZM510.11 -9.02972C515.665 -19.6876 519.81 -28.8082 519.32 -29.2979C517.157 -31.461 504.281 -19.7824 500.388 -12.1265C492.929 2.54018 491.355 10.4014 495.881 10.3736C498.151 10.3617 504.554 1.62817 510.11 -9.02972ZM460.73 2.7032C465.691 -3.27439 462.231 -8.4931 453.609 -8.03671C448.309 -7.75606 447.994 -7.34635 452.228 -6.24043C455.243 -5.45176 457.711 -4.00888 457.711 -3.03275C457.711 -2.05697 455.243 0.614965 452.228 2.90414C447.361 6.59871 447.318 7.07762 451.844 7.16608C454.649 7.22529 458.648 5.21264 460.73 2.7032ZM556.961 -29.0821C558.02 -31.8409 556.914 -35.3442 554.513 -36.8671C548.256 -40.8289 543.54 -40.3788 547.702 -36.217C549.635 -34.2837 550.471 -30.7589 549.56 -28.384C548.648 -26.009 549.512 -24.066 551.47 -24.066C553.431 -24.066 555.903 -26.3232 556.961 -29.0821ZM367.096 231.027C367.246 227.377 367.989 226.634 368.989 229.134C369.893 231.395 369.782 234.098 368.741 235.139C367.7 236.18 366.96 234.33 367.096 231.027ZM277.523 193.432C266.568 172.136 265.026 166.451 264.512 145.45L263.928 121.626L266.396 140.425C269.141 161.335 279.452 189.681 281.717 182.544C287.399 164.64 288.3 163.587 294.91 167.125C304.686 172.356 309.076 184.204 304.754 193.69C300.824 202.317 294.785 204.214 294.785 196.823C294.785 194.238 296.371 192.475 298.31 192.906C304.578 194.299 304.553 187.006 298.262 179.281L292.136 171.757L288.938 180.107C286.781 185.741 286.766 192.171 288.891 199.876C294.587 220.506 290.159 217.994 277.523 193.432ZM905.169 196.249C907.431 195.344 910.133 195.456 911.174 196.496C912.215 197.537 910.365 198.278 907.062 198.142C903.412 197.992 902.67 197.249 905.169 196.249ZM848.632 171.053C854.264 170.356 862.723 170.37 867.431 171.089C872.139 171.804 867.526 172.374 857.192 172.357C846.853 172.345 843.001 171.75 848.632 171.053ZM908.89 166.597C926.984 164.823 942.381 162.785 943.106 162.069C943.831 161.352 941.543 157.6 938.022 153.729C929.345 144.191 932.164 138.879 945.966 138.759C956.956 138.664 957.183 138.449 951.188 133.799C946.753 130.358 940.751 129.408 930.651 130.545C922.802 131.429 914.342 130.862 911.852 129.287C908.405 127.106 909.194 126.4 915.156 126.331C928.748 126.174 937.552 122.655 935.797 118.081C933.834 112.964 935.5 112.722 943.444 116.974C946.902 118.825 948.641 122.1 947.603 124.807C946.509 127.659 947.65 129.459 950.562 129.459C955.781 129.459 985.273 160.649 982.59 163.332C981.671 164.251 975.64 165.261 969.187 165.579C962.734 165.896 939.125 166.981 916.723 167.989L875.991 169.823L908.89 166.597ZM971.554 157.658C971.554 151.73 959.009 141.992 951.373 141.992C940.414 141.992 937.989 148.272 946.337 155.032C953.857 161.122 971.554 162.964 971.554 157.658ZM826.839 136.719C829.101 135.814 831.804 135.925 832.845 136.966C833.886 138.007 832.035 138.748 828.732 138.612C825.083 138.461 824.34 137.719 826.839 136.719ZM836.827 134.467C836.827 133.776 851.185 128.689 868.733 123.164C895.381 114.775 899.642 112.586 894.582 109.885C891.25 108.105 886.034 104.493 882.991 101.857C877.768 97.3342 877.944 96.7444 886.124 91.3505C895.869 84.9245 906.365 84.0226 915.362 88.8379C923.404 93.1415 923.131 101.261 914.945 101.261C909.894 101.261 908.906 99.8812 910.457 94.9942C911.98 90.194 911.019 88.7277 906.352 88.7277C898.432 88.7277 891.98 96.6317 894.512 103.23C896.247 107.751 899.395 108.066 919.145 105.699C955.385 101.355 981.26 102.412 991.92 108.672C997.089 111.708 998.499 113.235 995.053 112.065C972.06 104.26 936.706 103.676 932.163 111.027C931.223 112.548 927.339 113.793 923.534 113.793C919.728 113.793 899.844 118.728 879.347 124.76C842.42 135.626 836.827 136.902 836.827 134.467ZM966.854 120.06C965.702 118.195 969.432 116.926 976.068 116.926C982.202 116.926 987.22 118.336 987.22 120.06C987.22 121.783 983.073 123.193 978.005 123.193C972.937 123.193 967.919 121.783 966.854 120.06ZM611.537 90.5075C639.476 60.8321 689.567 2.60787 689.567 -0.191335C689.567 -6.72159 678.417 0.314302 664.095 15.881C642.311 39.5597 601.517 79.1904 595.571 82.4512C592.986 83.8687 604.618 71.1551 621.42 54.1987C638.222 37.2423 651.968 21.777 651.968 19.8316C651.968 17.8863 650.424 17.2491 648.537 18.4156C646.649 19.5821 641.686 18.7069 637.507 16.4706C631.67 13.3468 629.053 13.2612 626.213 16.1011C620.951 21.3635 611.376 20.6735 609.15 14.8717C608.107 12.1542 610.3 5.83306 614.042 0.772397C621.943 -9.91368 622.208 -9.78288 604.971 -3.70132C587.332 2.52199 585.322 2.04268 598.704 -5.19584C613.263 -13.0706 636.803 -15.7669 659.458 -12.1545C677.603 -9.2612 678.103 -9.38231 689.223 -19.3585C701.007 -29.931 723.977 -42.8679 730.957 -42.8636C733.179 -42.8623 729.358 -40.0539 722.465 -36.6227C715.572 -33.1915 703.588 -24.7725 695.833 -17.9139L681.734 -5.44357L691.917 -7.31403C698.561 -8.53446 702.099 -7.93928 702.099 -5.59978C702.099 -3.31227 705.021 -2.74857 710.174 -4.04184C714.615 -5.15617 721.312 -4.52854 725.056 -2.64543C728.801 -0.762796 736.095 1.17979 741.264 1.67135C746.77 2.19476 750.339 4.18758 749.881 6.48161C748.491 13.4281 761.695 10.6543 775.619 1.07461C793.149 -10.9868 814.943 -16.9576 826.571 -12.8848C843.201 -7.06012 836.747 13.4166 819.635 9.12173C811.078 6.97419 809.175 -1.31358 815.677 -8.10447C818.882 -11.4507 817.6 -11.78 808.628 -9.91539C796.9 -7.47807 775.611 2.38677 773.016 6.58641C770.159 11.2079 776.521 17.6324 781.907 15.5657C788.445 13.0564 799.228 18.5436 799.228 24.3804C799.228 31.9635 783.157 42.1161 772.763 41.0993C762.727 40.1176 760.693 34.6714 769.669 32.8125C772.84 32.1553 774.068 33.0825 772.782 35.1625C771.615 37.0514 772.639 38.5968 775.059 38.5968C780.407 38.5968 789.829 28.6842 789.829 23.0575C789.829 17.0823 769.723 21.0393 759.592 29.0082C755.079 32.5587 749.813 35.448 747.891 35.4289C745.97 35.4052 748.98 31.7827 754.58 27.3688C760.181 22.9549 764.763 17.8512 764.763 16.0274C764.763 11.7322 743.924 14.9901 737.548 20.2818C733.39 23.7328 733.517 24.5037 738.611 26.7176C744.637 29.3368 721.624 28.0309 695.181 24.253L680.429 22.1454L634.084 68.9658C608.594 94.7171 598.448 104.411 611.537 90.5075ZM733.968 17.7454C740.956 11.4217 741.439 4.13159 734.871 4.13159C726.831 4.13159 710.846 17.4468 715.409 20.3438C721.555 24.2462 727.742 23.3799 733.968 17.7454ZM712.036 11.479C715.187 8.62707 717.765 5.10215 717.765 3.64607C717.765 -1.95826 702.038 1.36009 693.658 8.73242L684.867 16.4663L695.586 16.5611C701.482 16.6203 708.884 14.331 712.036 11.479ZM634.827 5.30411C642.837 -3.33934 642.521 -8.40108 633.97 -8.40108C626.768 -8.40108 614.493 3.94 616.498 9.16491C619.086 15.9079 626.434 14.3599 634.827 5.30411ZM665.235 4.22293L675.467 -5.08489L662.535 -5.17967C648.7 -5.2744 640.594 0.728817 643.687 8.78799C646.476 16.0569 653.968 14.4717 665.235 4.22293ZM830.138 -0.728719C831.116 -5.77387 830.564 -6.03951 826.359 -2.54921C823.619 -0.275555 819.637 0.456 817.381 -0.900379C814.468 -2.65264 814.561 -1.81813 817.714 2.06734C823.006 8.58836 828.576 7.33483 830.138 -0.728719ZM269.72 108.296C269.72 104.389 282.001 89.208 282.148 92.9328C282.207 94.3842 279.432 99.1566 275.986 103.538C272.539 107.92 269.72 110.061 269.72 108.296ZM326.683 88.5275C324.41 84.8552 323.376 81.0244 324.385 80.0146C327.412 76.9878 333.053 84.5386 331.894 90.0664C330.991 94.3691 330.145 94.119 326.683 88.5275ZM863.459 91.2638C860.012 89.3174 852.962 84.2074 847.793 79.9086C842.623 75.6096 832.753 69.5366 825.86 66.413L813.328 60.7337L826.644 55.456C841.232 49.6742 842.769 46.9693 834.477 41.6695C829.797 38.6785 830.141 38.4198 836.827 39.9043C841.135 40.8612 845.717 41.6629 847.009 41.6865C848.302 41.7102 849.359 44.0087 849.359 46.7944C849.359 50.7158 851.305 51.408 857.976 49.8598C893.666 41.5767 908.442 40.707 922.469 46.0641C930.206 49.0188 937.321 53.482 938.281 55.9823C942.638 67.338 930.042 76.2176 918.408 69.9913C911.436 66.2603 909.851 55.9741 915.692 52.3644C918.098 50.8775 916.876 49.1779 912.143 47.427C904.682 44.6667 878.001 46.9817 871.587 50.9465C865.573 54.6631 871.061 62.8322 880.891 64.7983C895.331 67.6863 890.863 82.4609 875.55 82.4609C866.296 82.4609 863.465 87.5107 870.442 91.5725C873.494 93.3493 874.581 94.803 872.858 94.803C871.135 94.803 866.905 93.2104 863.459 91.2638ZM872.654 79.4051C881.853 75.9077 883.334 68.204 875.208 66.1184C872.192 65.344 864.973 66.6632 859.166 69.0487C849.199 73.1431 848.935 73.6354 854.466 77.824C861.559 83.1954 862.475 83.2751 872.654 79.4051ZM854.981 65.0139C858.84 62.3111 861.185 58.7862 860.193 57.1809C856.996 52.008 827.427 54.9267 827.427 60.4151C827.427 62.8892 839.495 69.3701 844.746 69.716C846.516 69.8345 851.122 67.7166 854.981 65.0139ZM930.822 62.6172C930.822 55.8589 927.263 54.2409 922.616 58.8872C916.694 64.8092 917.181 66.7949 924.556 66.7949C928.002 66.7949 930.822 64.9149 930.822 62.6172ZM940.222 88.7271C946.436 84.7114 959.936 84.7114 957.454 88.7271C956.39 90.4504 951.019 91.8387 945.52 91.8124C937.912 91.7769 936.646 91.038 940.222 88.7271ZM334.285 80.638C333.24 77.9121 332.524 72.6248 332.696 68.8885C332.982 62.6415 333.21 62.7251 335.516 69.9282C337.189 75.1501 338.129 75.9335 338.337 72.2781C338.509 69.2623 340.003 66.795 341.657 66.795C343.311 66.795 344.368 71.022 344.007 76.1883C343.307 86.1949 337.447 88.8771 334.285 80.638ZM784.439 82.3978C773.824 78.1263 771.531 63.9705 780.304 56.8666C784.201 53.7109 789.348 51.1289 791.742 51.1289C794.22 51.1289 796.095 47.9634 796.095 43.7815C796.095 31.2909 816.692 18.0265 840.414 15.2406L854.059 13.638L842.208 16.6896C826.335 20.777 814.629 27.0739 807.054 35.5999C802.597 40.6162 801.923 43.0394 804.711 44.0148C811.932 46.5406 808.725 50.4133 797.7 52.4817C781.972 55.4323 777.956 64.6068 787.998 74.6488C792.295 78.9454 797.201 82.4609 798.901 82.4609C803.665 82.4609 806.27 76.469 804.037 70.6491C802.332 66.2063 801.597 66.0954 799.23 69.9255C797.693 72.4122 795.513 73.5239 794.385 72.3961C791.089 69.1002 795.962 63.6621 802.211 63.6621C810.368 63.6621 812.904 72.8716 806.651 79.7813C800.947 86.0846 795.265 86.7536 784.439 82.3978ZM370.71 54.2649C365.365 45.7061 365.85 44.1235 373.112 46.4283C377.952 47.9643 380.109 46.4875 382.6 39.9386C384.372 35.2758 386.557 32.1949 387.454 33.0922C390.193 35.8306 385.176 51.2074 382.154 49.3394C380.6 48.3791 378.258 50.4857 376.95 54.0211C374.594 60.3894 374.537 60.3916 370.71 54.2649ZM376.248 36.8446C376.248 32.4348 377.526 29.6164 379.087 30.5814C380.648 31.5465 381.189 35.1546 380.288 38.5993C378.034 47.2205 376.248 46.4449 376.248 36.8446ZM517.711 32.4864C519.058 28.4473 523.355 27.7218 523.743 31.468C523.872 32.7173 522.286 34.3036 520.218 34.9929C518.15 35.6821 517.022 34.5548 517.711 32.4864ZM861.109 11.3194C864.986 10.5722 871.331 10.5722 875.208 11.3194C879.085 12.0666 875.913 12.6772 868.158 12.6772C860.404 12.6772 857.231 12.0662 861.109 11.3194ZM634.834 -28.7674C639.618 -44.079 640.223 -44.6929 642.561 -36.6004L644.823 -28.7674L648.318 -37.3838C650.24 -42.1227 653.42 -46 655.384 -46C657.579 -46 656.817 -42.6776 653.41 -37.3838L647.865 -28.7674L654.636 -34.7535C664.247 -43.2506 666.097 -39.1919 656.656 -30.3223C652.355 -26.2815 648.835 -24.396 648.835 -26.1324C648.835 -27.8689 646.72 -29.2897 644.135 -29.2897C641.551 -29.2897 639.436 -28.1149 639.436 -26.6786C639.436 -25.2426 638.07 -24.0677 636.401 -24.0677C634.732 -24.0677 634.027 -26.1825 634.834 -28.7674ZM739.698 -42.8668C735.681 -45.4623 735.795 -45.9111 740.481 -45.952C743.496 -45.9757 745.964 -44.59 745.964 -42.8668C745.964 -39.0455 745.611 -39.0455 739.698 -42.8668Z" fill="#CB2A3D" fill-opacity="0.28"/>
<path d="M504 276.617L555.729 230L589.811 150L597.831 154.643L613.87 156.753L622.312 162.663L641.728 163.507L677.605 222.177L681.143 216.165L744 276.617L717.703 331.497L615.98 329.808L538.739 301.107L504 276.617Z" fill="#9C523E"/>
<path d="M459.605 314.468L484.679 282.092L530.323 274.689L537.736 257.663L541.443 262.104L580.892 255.658L591.388 282.092H629.664L625.216 274.689L634.853 275.43L647.456 266.546L673.404 280.612L678.271 258.861L716.402 274.689L708.988 267.287H726.781L719.367 251L749.763 277.651L775.71 285.794L800.175 284.313L858 339.835L657.835 415.345L431.723 422.748L408 384.993L459.605 314.468Z" fill="#4F3439"/>
<path d="M195 370.666L322.01 301.95L332.918 375.053L362.697 284.35L458.737 206L477.272 337.148L522.428 277.482L560.844 355.379L593.532 337.148L620.491 382.414L653.178 301.95L685.192 349.422L700.019 321.013L750.377 333.086L726.579 212.873L823.356 333.086V287.058L1041 371.989L1280 460V754.5V1317H0V655.5V450L195 370.666Z" fill="#2E2E37"/>
<defs>
<linearGradient id="paint0_linear_1127_2092" x1="640" y1="0" x2="640" y2="753" gradientUnits="userSpaceOnUse">
<stop stop-color="#C7754E"/>
<stop offset="0.333333" stop-color="#C7734C"/>
<stop offset="0.666667" stop-color="#C36671"/>
<stop offset="1" stop-color="#C36671"/>
</linearGradient>
</defs>
</svg>
