<svg width="1280" height="167" viewBox="0 0 1280 167" fill="none" xmlns="http://www.w3.org/2000/svg">
<path d="M253.859 166.586H0V160C0 160 254.682 150.559 253.859 146.605C253.318 144.002 253.715 141.995 254.91 141.284C255.966 140.656 258.393 137.546 260.304 134.373C263.261 129.461 263.453 128.375 261.593 127.067C257.34 124.075 256.667 114.591 260.708 114.591C263.196 114.591 271.108 108.273 271.108 106.286C271.108 105.233 272.049 104.371 273.199 104.371C274.349 104.371 276.14 103.385 277.179 102.181C279.484 99.5096 283.833 99.3378 285.986 101.833C287.094 103.118 287.079 105.464 285.934 109.587C283.605 117.98 285.202 122.076 292.316 125.95C296.613 128.291 298.427 130.253 298.427 132.561C298.427 137.061 294.316 142.332 290.806 142.332C288.33 142.332 284.767 146.152 284.767 148.807C284.767 149.261 288.182 149.632 292.356 149.632H299.945V143.596C299.945 140.277 300.739 135.012 301.709 131.897C303.294 126.809 303.144 125.897 300.231 122.915C297.362 119.977 297.135 118.711 298.256 111.888C299.257 105.798 300.755 102.966 305.389 98.4008C310.585 93.2818 311.036 92.2861 309.343 89.6772C308.291 88.0573 307.819 86.1269 308.294 85.3876C309.846 82.9728 319.562 82.0709 324.183 83.9124C328.276 85.5434 328.677 86.3608 329.09 93.9344C329.444 100.411 330.03 102.06 331.818 101.616C339.749 99.6495 340.924 99.7115 340.924 102.097C340.924 103.442 341.618 104.131 342.467 103.626C343.315 103.122 343.663 102.17 343.239 101.511C342.815 100.851 344.856 99.2217 347.775 97.8896C351.033 96.4023 354.223 93.3132 356.04 89.8863C360.798 80.9162 371.279 80.7794 371.279 89.6873C371.279 95.3517 378.862 109.341 380.88 107.399C381.717 106.594 382.46 102.792 382.532 98.9485L382.662 91.9607L388.177 92.2625C393.152 92.5346 393.779 92.1484 394.576 88.3138C395.782 82.5137 401.493 79.0159 406.667 80.9084L410.592 82.3438L410.421 101.753C410.312 114.079 410.966 123.293 412.212 127.002C414.844 134.833 415.275 135.404 417.326 133.768C419.211 132.263 419.286 120.302 417.55 98C416.836 88.824 417.024 85.3446 418.195 86.041C419.103 86.5812 419.847 88.5882 419.847 90.501C419.847 92.4137 420.475 94.3523 421.243 94.8088C422.786 95.7264 428.332 89.5754 429.7 85.428C431.475 80.0471 440.627 80.4174 441.772 85.9167C443.788 95.5975 444.355 97.0635 446.057 96.9866C447.085 96.9424 452.605 90.9633 458.324 83.7046C467.86 71.6026 469.057 70.5892 472.743 71.4993C474.954 72.045 478.299 72.6016 480.177 72.736C482.056 72.8707 483.592 73.8222 483.592 74.8512C483.592 75.8802 484.617 77.1003 485.869 77.5625C487.592 78.1985 488.146 80.8831 488.146 88.6017C488.146 96.7934 488.778 99.5643 491.359 102.681L494.572 106.561L493.578 102.093C492.812 98.6502 493.294 97.0053 495.677 94.931C497.885 93.0087 498.77 90.4234 498.77 85.8945C498.77 82.4053 499.453 79.5507 500.288 79.5507C501.123 79.5507 501.805 80.8648 501.805 82.4708C501.805 86.4475 503.981 86.1402 506.978 81.7406C508.682 79.2391 510.846 78.0906 513.856 78.0906C516.272 78.0906 518.594 77.2692 519.018 76.2655C519.597 74.892 520.186 74.9824 521.397 76.6302C523.442 79.4119 523.5 84.7812 521.522 88.3357C520.372 90.4021 520.776 92.5388 523.139 96.9007C526.416 102.949 530.152 106.79 531.498 105.495C531.928 105.081 530.546 101.604 528.426 97.769C523.906 89.5919 523.776 88.1858 526.985 82.2165C529.131 78.2236 529.146 77.4848 527.118 75.5342C524.842 73.3448 525.326 71.8578 531.602 61.7521C532.427 60.4238 541.267 63.4129 541.267 65.0201C541.267 65.7046 540.072 66.9426 538.611 67.7708C536.294 69.0842 536.246 69.4639 538.232 70.7411C541.824 73.0522 543.763 72.5293 546.5 68.5118C548.377 65.7548 550.116 64.8927 553.125 65.2269C556.752 65.6297 557.255 66.3695 557.671 71.9072C558.015 76.4813 559.063 78.7169 561.62 80.3284C566.052 83.1221 570.852 80.992 578.594 72.7977C582.028 69.1621 584.224 67.7924 584.737 68.9651C586.143 72.1815 589.57 70.9302 593.732 65.6799C596.24 62.5175 599.081 60.5699 601.188 60.5699C603.896 60.5699 604.461 59.8979 603.952 57.2846C603.362 54.2579 603.911 53.9791 610.93 53.7397L618.549 53.48L622.026 60.615C623.938 64.5393 625.891 67.777 626.367 67.8099C626.842 67.843 628.208 65.7351 629.402 63.1259C631.689 58.1303 634.754 56.8184 640.756 58.2674C644.38 59.1426 644.385 59.1726 644.12 79.2243C643.861 98.7831 644.495 102.911 647.755 102.911C648.831 102.911 648.983 96.5339 648.23 82.9986C647.414 68.3528 647.574 63.3557 648.833 64.1043C649.775 64.6642 650.545 66.7258 650.545 68.6859C650.545 70.6461 651.202 72.25 652.004 72.25C654.11 72.25 659.652 66.2058 659.652 63.9083C659.652 59.6522 671.616 58.3273 671.91 62.551C672.31 68.2986 674.733 75.1702 676.36 75.1702C679.316 75.1702 679.333 72.0397 676.406 66.5182C672.584 59.3129 672.532 57.6497 676.127 57.6497C677.675 57.6497 680.667 56.1109 682.776 54.2301C684.886 52.3493 688.23 50.8709 690.207 50.9449C692.845 51.0437 694.409 49.8234 696.079 46.366C697.331 43.7736 699.512 41.6381 700.926 41.6207C704.134 41.5821 708.221 47.0139 708.221 51.3181C708.221 53.0995 708.904 54.9631 709.739 55.4595C710.574 55.9556 711.257 57.8638 711.257 59.6995C711.257 61.5352 712.689 64.2839 714.439 65.8076C717.14 68.159 717.476 69.6284 716.663 75.5241C715.881 81.1948 716.133 82.4705 718.034 82.4705C720.655 82.4705 721.16 84.7446 718.846 86.1205C716.897 87.279 716.929 90.7563 718.971 99.9188C720.381 106.244 721.123 107.291 724.194 107.291C726.162 107.291 728.19 106.642 728.699 105.85C730.545 102.977 730.623 88.4881 728.797 87.8139C725.323 86.5315 727.552 68.2653 732.155 60.2947C735.696 54.1638 735.968 52.9296 734.024 51.833C725.936 47.2721 725.49 46.49 728.332 41.8373C729.793 39.4454 730.988 36.3958 730.988 35.0603C730.988 32.2146 736.109 33.1906 740.46 36.8656C742.971 38.9862 742.971 39.1907 740.46 40.9828C737.972 42.7589 737.994 42.9987 740.853 45.1026C745.057 48.1964 747.683 47.9682 747.683 44.5092C747.683 42.2916 748.688 41.5946 751.857 41.6116C758.799 41.6502 760.187 43.3514 759.115 50.5097C758.205 56.5821 758.423 57.0926 763.258 60.2048C769.108 63.9707 770.45 64.2369 770.45 61.6318C770.45 60.6099 772.674 58.6217 775.392 57.2136C778.11 55.8054 781.695 52.2067 783.36 49.2164C785.408 45.5366 787.613 43.6277 790.181 43.3108C792.268 43.0531 794.856 41.7427 795.932 40.3981C797.644 38.2592 798.069 38.2263 799.324 40.1364C801.191 42.9779 801.191 48.3867 799.324 51.7431C796.812 56.2587 803.463 66.581 811.102 70.0224C814.621 71.6077 817.5 73.4533 817.5 74.1237C817.5 74.7942 816.823 74.9396 815.995 74.4474C815.166 73.9551 813.492 74.089 812.274 74.7451C810.399 75.7546 810.558 76.6955 813.311 80.8784L816.563 85.8194L818.802 80.8602C820.033 78.1325 822.229 73.2726 823.681 70.0604C825.133 66.8484 827.115 59.6212 828.086 54.0001C830.312 41.1108 834.031 32.9777 841.762 24.0952C845.113 20.2444 847.855 15.7577 847.855 14.125C847.855 12.4476 845.101 8.88793 841.522 5.94123C838.039 3.073 835.478 0.464823 835.831 0.145095C836.183 -0.174413 839.757 0.05164 843.773 0.647613C849.397 1.48291 852.533 3.08644 857.432 7.63167C860.93 10.8764 866.075 14.6365 868.866 15.9875C874.238 18.5884 874.227 19.1488 868.751 21.7746C866.389 22.9074 865.339 24.6714 865.404 27.3973C865.926 49.2301 865.807 48.6848 870.546 51.0422C873.009 52.2674 876.091 53.2699 877.395 53.2699C880.573 53.2699 887.317 38.3813 887.317 31.3662C887.317 24.3726 890.701 21.1686 892.988 25.9968C894.311 28.7903 893.578 31.3064 888.673 40.807C885.423 47.1016 882.764 53.4459 882.764 54.9058C882.764 56.3656 881.446 60.044 879.836 63.0801C876.825 68.7587 871.245 93.6617 870.863 103.13L870.648 108.459L877.844 109.045C881.802 109.367 888.052 108.775 891.732 107.731C903.241 104.464 1280 120.086 1280 120.086V166.586H901.999H792.499C732.534 166.586 579.364 166.051 451.507 166.586H253.859ZM350.031 144.617C350.031 140.104 346.972 135.179 343.019 133.325C337.469 130.724 336.83 128.047 341.362 126.389C343.704 125.533 345.392 123.502 345.922 120.905C347.044 115.398 345.009 113.719 340.715 116.612C336.086 119.731 334.854 119.588 334.854 115.929C334.854 114.128 334.08 113.149 332.957 113.528C330.243 114.443 331.397 121.189 335.649 129.26C338.524 134.718 339.012 137.105 337.97 140.603C336.33 146.103 336.953 146.712 344.213 146.712C348.256 146.712 350.031 146.073 350.031 144.617ZM422.633 139.494C422.912 137.658 422.463 135.503 421.635 134.706C419.699 132.844 416.229 138.763 417.456 141.837C418.702 144.961 422.03 143.455 422.633 139.494ZM463.575 130.931C463.836 127.449 462.904 121.763 461.488 118.195C459.315 112.722 459.203 110.703 460.745 104.81C462.04 99.8635 462.087 97.7177 460.909 97.3399C460 97.0485 458.155 95.7514 456.811 94.4578C454.563 92.2953 454.136 92.3796 451.507 95.5029C449.934 97.3713 448.222 100.624 447.704 102.731C447.184 104.837 445.908 107.546 444.867 108.751C443.826 109.955 443.1 114.033 443.255 117.812C443.5 123.813 444.39 125.521 450.284 131.292C459.026 139.851 462.915 139.745 463.575 130.931ZM383.456 131.284C384.95 126.927 384.863 125.794 382.922 124.349C381.645 123.398 380.382 120.979 380.114 118.971C379.782 116.479 378.544 115.173 376.212 114.855C373.043 114.421 372.797 114.939 372.797 122.061C372.797 127.929 373.574 130.528 376.097 133.112C380.499 137.619 381.355 137.406 383.456 131.284ZM495.521 120.796L495.599 106.561L492.666 110.211C491.052 112.218 489.717 115.658 489.699 117.855C489.658 122.873 492.974 135.031 494.386 135.031C494.967 135.031 495.477 128.626 495.521 120.796ZM536.799 126.551C532.025 110.54 521.72 104.475 520.75 117.105C520.086 125.737 524.228 130.652 532.166 130.652C537.861 130.652 537.988 130.539 536.799 126.551ZM576.194 120.066C579.945 114.151 581.332 107.411 579.999 101.574C579.114 97.6972 578.58 97.2931 576.058 98.5915C574.025 99.6381 572.183 99.5997 569.979 98.4655C567.457 97.1669 566.229 97.3499 563.908 99.3705C559.921 102.841 560.261 108.682 564.793 114.591C566.88 117.312 568.588 120.725 568.588 122.175C568.588 126.416 572.932 125.212 576.194 120.066ZM615.638 117.315C615.638 115.602 616.454 111.58 617.451 108.378C619.06 103.213 618.95 102.336 616.477 100.596C614.121 98.9387 613.842 97.3921 614.672 90.5956C615.464 84.1094 615.251 82.7047 613.569 83.3256C612.31 83.7903 611.145 82.8477 610.628 80.9458C610.157 79.2135 609.069 78.2141 608.21 78.7248C607.211 79.3182 607.14 80.9003 608.013 83.1077C609.071 85.786 608.717 87.1374 606.437 89.1224C602.678 92.3946 602.708 97.1609 606.532 104.371C608.201 107.519 609.567 111.381 609.567 112.953C609.567 117.36 611.193 120.431 613.524 120.431C614.687 120.431 615.638 119.029 615.638 117.315ZM536.993 115.735C535.904 114.687 535.198 114.601 535.198 115.515C535.198 116.345 535.653 117.462 536.209 117.998C536.766 118.533 537.574 118.631 538.005 118.217C538.437 117.802 537.982 116.685 536.993 115.735ZM652.739 117.643C653.208 116.912 653.139 115.178 652.584 113.788C651.641 111.422 651.447 111.431 649.544 113.935C648.426 115.406 647.511 117.141 647.511 117.79C647.511 119.405 651.682 119.288 652.739 117.643ZM689.383 112.014C690.291 111.424 691.871 107.69 692.895 103.717C694.582 97.1687 694.491 96.2823 691.915 94.2271C687.782 90.9283 685.455 84.7363 685.455 77.0368V70.2807L681.661 73.7098C679.428 75.7273 677.866 78.7637 677.866 81.0859C677.866 83.2566 676.95 85.764 675.83 86.658C674.686 87.5715 673.747 91.3171 673.685 95.2086C673.587 101.496 674.146 102.639 679.768 107.632C686.35 113.477 686.808 113.686 689.383 112.014ZM768.848 101.086C774.469 95.3162 774.663 93.0487 769.691 91.2302C767.604 90.4669 765.896 88.8245 765.896 87.5802C765.896 86.3359 767.604 84.6935 769.691 83.9302C772.871 82.7672 773.485 81.5905 773.485 76.6659C773.485 73.4339 773.174 70.7896 772.794 70.7896C771.631 70.7896 760.744 77.8693 758.047 80.3789C756.272 82.0305 755.343 85.8791 754.955 93.1901C754.65 98.9379 754.637 104.134 754.927 104.736C756.351 107.705 764.474 105.575 768.848 101.086ZM776.521 102.18C776.521 97.9044 775.502 97.6434 771.707 100.947C767.901 104.261 768.228 105.831 772.726 105.831C775.762 105.831 776.521 105.101 776.521 102.18ZM868.118 96.0112C869.494 87.9642 874.551 67.5919 875.979 64.3451C876.818 62.4382 876.675 61.8675 875.529 62.5486C874.606 63.0977 872.403 68.2973 870.633 74.1035C868.863 79.9096 866.771 86.6779 865.983 89.144C864.188 94.7608 864.11 103.345 865.864 102.302C866.586 101.873 867.6 99.0421 868.118 96.0112ZM813.641 92.1473C814.807 88.9726 814.358 86.8793 811.364 81.5311C807.994 75.512 801.674 70.9268 799.556 72.9644C799.1 73.4026 798.597 76.765 798.436 80.4368C798.179 86.2894 798.792 87.7365 803.401 92.1706C809.328 97.872 811.539 97.8658 813.641 92.1473ZM462.345 94.1503C462.345 93.3473 461.622 92.6903 460.738 92.6903C459.854 92.6903 459.553 93.3473 460.069 94.1503C460.584 94.9533 461.308 95.6104 461.676 95.6104C462.044 95.6104 462.345 94.9533 462.345 94.1503ZM471.532 87.3778C472.369 85.2588 472.865 83.4521 472.633 83.3627C472.401 83.2733 470.594 82.325 468.617 81.2553C465.92 79.7957 464.594 79.7271 463.305 80.9808C462.023 82.2271 462.261 83.0182 464.242 84.0936C465.703 84.8865 466.899 86.8163 466.899 88.3825C466.899 92.4987 469.752 91.88 471.532 87.3778ZM566.802 86.3643C567.133 84.7231 566.267 83.9302 564.146 83.9302C560.678 83.9302 560.577 84.0941 561.945 87.5226C563.101 90.4199 566.13 89.6975 566.802 86.3643ZM474.867 77.1998C475.493 77.0872 476.387 76.9129 476.854 76.8124C477.321 76.712 477.243 75.9155 476.682 75.0425C475.996 73.9749 475.161 73.9376 474.131 74.9283C473.289 75.7386 471.658 76.0543 470.508 75.6296C469.357 75.2047 468.416 75.4748 468.416 76.2301C468.416 78.4492 470.226 79.551 472.043 78.4375C472.97 77.8694 474.241 77.3125 474.867 77.1998ZM623.461 67.56C621.95 64.845 620.333 64.2195 614.826 64.2195C608.384 64.2195 608.049 64.4254 608.049 68.3909C608.049 71.1249 608.703 72.3229 609.947 71.8678C610.99 71.4859 613.452 71.7481 615.417 72.4511C617.982 73.368 618.711 74.4472 617.999 76.2742C617.348 77.9422 618.439 77.4548 621.163 74.8603C624.822 71.3745 625.097 70.5008 623.461 67.56ZM540.509 73.7098C539.994 72.9067 538.587 72.2497 537.384 72.2497C536.182 72.2497 535.198 72.9067 535.198 73.7098C535.198 74.5128 536.604 75.1698 538.322 75.1698C540.041 75.1698 541.025 74.5128 540.509 73.7098ZM765.483 66.8736C765.812 65.9241 764.673 64.4228 762.953 63.5371C760.166 62.1023 759.825 62.3416 759.825 65.7351C759.825 68.5056 760.515 69.415 762.356 69.0716C763.747 68.8117 765.155 67.823 765.483 66.8736ZM618.389 59.2007C618.768 58.1057 618.199 57.5582 617.061 57.9232C615.966 58.2747 614.77 59.4243 614.405 60.4782C614.026 61.5733 614.595 62.1208 615.733 61.7558C616.829 61.4042 618.024 60.2547 618.389 59.2007ZM612.603 58.293C612.603 57.0411 611.92 56.4229 611.085 56.9192C610.25 57.4153 609.567 58.4401 609.567 59.1957C609.567 59.9513 610.25 60.5695 611.085 60.5695C611.92 60.5695 612.603 59.545 612.603 58.293ZM742.265 50.5144C743.431 48.6985 739.065 45.5065 737.052 46.7035C735.867 47.4076 735.901 48.2774 737.171 49.7492C739.206 52.108 741.062 52.3866 742.265 50.5144Z" fill="black" fill-opacity="0.08"/>
</svg>
