<svg width="557" height="119" viewBox="0 0 557 119" fill="none" xmlns="http://www.w3.org/2000/svg">
<path d="M22.3056 117.833L0.333707 117.422L0.0839903 115.664C-0.100484 114.366 0.413341 113.648 2.04579 112.923C5.45801 111.406 6.73095 109.85 7.35339 106.436C7.66803 104.709 8.22674 101.708 8.59491 99.7656C9.49478 95.0192 9.45554 43.4145 8.54423 33.0654C8.14518 28.5337 7.59575 21.1182 7.32334 16.5865C6.79661 7.8242 5.80226 5.09555 2.98357 4.67675C0.89678 4.3667 -0.747393 2.04735 0.351447 0.963755C1.45411 -0.123607 34.2853 -0.389706 35.3551 0.680187C36.4778 1.80293 33.4906 4.81595 31.2547 4.81595C27.7016 4.81595 25.3926 7.12023 24.2904 11.766C22.7201 18.3852 22.2323 66.8062 23.5778 82.5022C24.7593 96.2861 24.8727 101.646 24.0428 104.474C23.7262 105.553 23.7878 106.928 24.1796 107.529C25.0715 108.899 34.6428 109.599 41.8802 108.823C46.4355 108.336 47.4042 107.928 49.7474 105.516C51.2172 104.002 53.0596 101.208 53.8417 99.3061C55.3625 95.6074 57.3777 94.7638 58.7164 97.2653C60.0383 99.7351 55.5771 116.596 53.276 117.828C52.4837 118.252 50.135 118.519 48.0565 118.421C45.9781 118.324 34.3901 118.059 22.3056 117.833ZM519.196 114.618L517.011 112.098L515.043 113.947C513.381 115.508 512.837 115.647 511.549 114.843C510.71 114.319 509.401 113.87 508.64 113.844C507.879 113.817 505.667 113.021 503.725 112.072L500.194 110.346L499.081 97.9254C498.12 87.2019 498.12 85.4068 499.081 84.789C501.514 83.2246 502.537 84.3667 503.012 89.1796C504.058 99.7841 507.562 103.732 518.634 106.784C525.121 108.572 528.076 108.644 532.554 107.122C534.917 106.318 537.659 104.853 538.646 103.866C540.457 102.054 542.96 95.6624 542.96 92.8478C542.96 91.0882 541.089 86.5799 539.638 84.844C538.049 82.9421 532.223 78.5785 531.273 78.5785C530.795 78.5785 530.405 78.2665 530.405 77.8853C530.405 77.504 529.787 76.9793 529.032 76.7192C528.276 76.4591 526.423 75.4991 524.912 74.5859C523.401 73.6727 519.276 71.1863 515.743 69.0606C505.195 62.712 502.056 57.5178 502.055 46.4054C502.054 38.176 502.861 36.1966 508.828 29.8059C517.497 20.5202 516.434 20.8657 535.503 21.1355C544.565 21.2637 552.282 21.6704 552.65 22.0392C553.019 22.408 553.063 28.4134 552.747 35.3846L552.172 48.0593L550.123 47.8209C548.284 47.6071 548.012 47.1448 547.463 43.3087C546.752 38.3325 543.878 32.9831 541.26 31.761C537.217 29.874 534.95 29.1418 533.153 29.1418C530.21 29.1418 522.902 31.2339 520.619 32.7302C514.599 36.6743 514.877 46.8741 521.153 52.3731C522.579 53.6226 528.831 57.6464 535.047 61.3149C541.262 64.9834 547.677 69.2209 549.302 70.7314C553.208 74.3618 556.502 81.0699 556.939 86.284C557.622 94.4358 552.496 107.07 547.117 110.495C545.91 111.264 544.722 112.169 544.478 112.508C543.432 113.957 534.972 116.122 528.443 116.61L521.381 117.138L519.196 114.618ZM361.3 95.0574C361.033 94.6258 359.479 94.2726 357.846 94.2726C352.714 94.2726 342.506 86.0983 333.443 74.7303C331.932 72.8356 330.696 70.8959 330.696 70.4199C330.696 69.9438 331.844 69.4437 333.247 69.3085C334.649 69.1732 335.797 68.7207 335.797 68.3029C335.797 67.1172 333.433 66.5042 332.491 67.4459C330.984 68.9529 326.868 67.4758 323.773 64.3171L320.772 61.2555L313.964 61.4815L307.155 61.7075L307.328 74.2629C307.499 86.6818 307.521 86.8207 309.29 87.0509C312.755 87.5015 315.473 88.9727 315.225 90.2634C315.014 91.3615 313.06 91.5543 300.261 91.74C287.619 91.9233 285.475 91.7832 285.078 90.7491C284.454 89.1242 286.003 87.4139 288.617 86.8397C289.824 86.5745 291.346 85.3831 292.094 84.1179C293.281 82.1071 293.423 78.6178 293.423 51.3106C293.423 17.2527 293.719 19.0711 287.93 17.5846C285.736 17.0211 285.183 16.4949 285.183 14.9674C285.183 13.11 285.396 13.0415 292.638 12.5638C296.738 12.2933 303.455 11.8041 307.564 11.4764C315.976 10.8057 327.235 11.9753 332.266 14.0424C336.053 15.5983 341.291 19.5057 341.288 20.7724C341.287 21.2756 340.24 22.3882 338.961 23.2448C336.088 25.1697 336.969 26.3338 340.395 25.1396C342.532 24.3944 343.172 24.4737 344.465 25.6432C345.694 26.7556 345.996 28.0586 345.987 32.2063C345.969 40.1975 343.408 46.7928 337.761 53.3921C335.765 55.7241 334.429 57.8428 334.791 58.1003C335.154 58.3578 338.135 61.7467 341.416 65.631C348.96 74.5641 354.876 80.1481 356.795 80.1481C358.93 80.1481 360.532 76.885 359.419 74.8049C358.862 73.7644 358.554 66.8652 358.554 55.4298C358.554 36.5288 358.46 35.9903 354.496 32.0257C353.269 30.7988 352.465 29.4714 352.709 29.0761C353.39 27.9739 377.17 28.1564 377.858 29.2692C378.388 30.1265 376.973 31.6251 373.905 33.458C371.787 34.7234 371.149 39.4764 370.638 57.784C370.072 78.0946 370.523 80.2124 375.859 82.3087C378.311 83.2716 378.77 83.743 378.073 84.5823C377.444 85.3401 374.991 85.6412 369.444 85.6412C364.799 85.6412 361.693 85.9557 361.693 86.4259C361.693 86.8575 362.757 87.2106 364.057 87.2106C365.358 87.2106 367.035 87.5206 367.785 87.8995C368.534 88.2784 370.472 89.1555 372.09 89.8486C375.683 91.3873 375.839 92.9712 372.558 94.6078C369.814 95.9767 362.06 96.2863 361.3 95.0574ZM323.342 54.7134C327.206 53.0946 329.645 50.0957 331.232 45.0126C333.031 39.2525 333.021 35.2118 331.195 30.0272C329.504 25.226 326.403 21.5107 322.383 19.4711C318.658 17.5815 309.25 17.4083 307.936 19.2051C306.942 20.5654 306.271 52.0756 307.186 54.4487C307.631 55.6032 308.749 55.8219 314.206 55.8219C318.025 55.8219 321.785 55.3657 323.342 54.7134ZM54.0863 87.6577C46.2028 85.5691 42.8032 83.6918 37.6452 78.5785C30.1202 71.1187 26.7615 61.563 27.7555 50.442C28.9101 37.5244 36.9056 27.1762 49.0222 22.9176C55.062 20.7947 69.0581 20.6333 75.3796 22.6134C80.6514 24.2648 87.0715 28.396 89.9462 31.9866C91.1554 33.497 92.5204 35.1522 92.9795 35.6647C93.4387 36.1772 94.8259 38.7153 96.0623 41.3048C97.8504 45.0497 98.3815 47.4148 98.6579 52.8642C99.0212 60.0283 98.1802 64.0435 94.7523 71.5116C91.5054 78.5854 81.7696 85.8569 72.768 87.9312C68.0899 89.0092 58.6667 88.8713 54.0863 87.6577ZM72.8084 81.0266C74.6895 80.2633 77.4597 78.4351 78.9644 76.9638C86.4972 69.5985 88.337 55.9091 83.3876 44.0513C79.4529 34.6242 75.6542 30.7161 67.8751 28.0921C62.9787 26.4405 60.4139 26.4508 54.94 28.144C46.2139 30.8434 39.9616 39.9168 39.9616 49.8806C39.9616 54.5904 41.7448 63.2036 43.5719 67.3187C44.1758 68.6787 44.6698 69.9989 44.6698 70.2524C44.6698 70.9946 47.1886 74.0112 50.3692 77.0783C55.6465 82.1671 65.6567 83.9285 72.8084 81.0266ZM141.189 86.183C138.742 84.8708 136.514 82.646 133.931 78.9347C131.881 75.9895 130.203 73.1449 130.203 72.6133C130.203 72.0818 129.938 71.5292 129.615 71.3853C129.291 71.2415 127.928 69.005 126.585 66.4155C123.783 61.0087 121.717 59.8272 117.081 60.9798L114.117 61.717L114.241 68.6869C114.422 78.8148 115.457 81.8624 119.274 83.5164C120.969 84.2507 122.356 85.3822 122.356 86.0309C122.356 87.0339 120.368 87.2103 109.062 87.2103C101.185 87.2103 95.574 86.8955 95.2911 86.4376C95.0286 86.0127 95.9486 84.9748 97.3359 84.1311C101.763 81.4388 101.99 79.9678 101.978 54.0947C101.967 28.6078 101.676 26.6943 97.6651 25.6876C95.675 25.1881 94.877 22.6658 96.4096 21.7186C96.8131 21.4692 104.776 21.2631 114.105 21.2606C128.985 21.2576 131.474 21.4365 134.39 22.7261C141.515 25.8779 144.328 30.4578 144.328 38.9068C144.328 45.788 142.993 49.1209 138.511 53.4255C136.897 54.9763 135.696 56.8919 135.696 57.9165C135.696 58.8992 137.373 62.3677 139.423 65.6244C141.473 68.881 143.504 72.1642 143.936 72.9203C148.682 81.2361 153.369 84.5661 155.286 80.9842C155.794 80.0349 156.099 70.6658 156.099 55.9693C156.099 29.0061 155.814 27.3506 151.026 26.4524C148.183 25.919 147.526 24.6886 149.193 23.0211C150.369 21.845 156.18 21.7928 158.689 22.9356C160.13 23.5925 161.425 23.5011 164.246 22.5433C169.887 20.6282 185.798 20.8204 192.25 22.8816C200.857 25.631 207.5 30.5713 210.355 36.345C214.313 44.3499 214.387 44.7203 213.987 54.4365C213.764 59.8605 213.229 64.1366 212.708 64.6572C212.216 65.1495 211.81 66.2761 211.806 67.1609C211.785 71.5086 203.229 82.0544 197.76 84.4711C196.21 85.1563 194.235 86.1402 193.372 86.6577C192.271 87.3178 184.78 87.6697 168.262 87.8373L144.72 88.0761L141.189 86.183ZM192.9 77.9574C198.813 73.1935 200.367 69.5778 201.504 57.9448C201.806 54.8532 202.464 52.3413 203.071 51.9667C203.897 51.4558 203.69 50.6453 202.079 48.0938C200.959 46.3192 200.042 44.5357 200.042 44.1305C200.042 43.2734 197.658 38.6667 196.511 37.3078C196.079 36.7965 195.096 35.5052 194.325 34.4383C193.554 33.3714 191.284 31.6549 189.28 30.624C186.137 29.0073 184.531 28.7495 177.606 28.7495C173.19 28.7495 169.281 29.0439 168.919 29.4036C168.557 29.7634 168.197 40.6691 168.117 53.6384C168.023 69.1009 167.685 77.5071 167.136 78.0557C166.676 78.5159 166.3 79.158 166.3 79.4827C166.3 80.2888 174.631 80.7855 183.091 80.4838C189.435 80.2575 190.331 80.0269 192.9 77.9574ZM124.057 54.3542C128.259 52.5401 129.644 50.9688 131.218 46.2268C132.344 42.8353 132.34 42.1284 131.164 37.9874C129.091 30.6909 124.085 26.3767 118.329 26.9272L115.686 27.1802L115.294 38.1661C115.078 44.2084 114.614 49.5966 114.262 50.1399C112.809 52.3857 115.734 55.6222 119.348 55.769C120.068 55.7986 122.187 55.1615 124.057 54.3542ZM470.375 87.546C457.529 84.4731 449.374 77.9546 444.46 66.8315C443.217 64.0188 442.914 61.6092 442.929 54.6685C442.955 42.8171 444.255 39.4189 451.514 32.2308C458.077 25.7332 460.699 24.2581 468.114 22.8941C474.8 21.6642 498.556 22.0902 499.931 23.4647C500.564 24.0978 500.538 26.4109 499.834 32.0336C498.639 41.5704 497.87 43.8099 496.25 42.4656C495.614 41.9373 495.093 40.4339 495.093 39.1248C495.093 36.0502 491.938 31.9382 488.208 30.1507C486.003 29.0939 483.355 28.7495 477.437 28.7495C470.14 28.7495 469.342 28.9075 466.059 31.0018C461.061 34.1894 458.464 37.4546 456.649 42.8289C454.638 48.7821 454.563 58.515 456.484 64.0716C460.905 76.8572 467.537 81.7065 480.968 81.9759C486.578 82.0883 487.579 81.9226 487.266 80.9327C487.061 80.2853 486.77 76.4191 486.62 72.3412C486.307 63.87 485.078 61.2847 480.441 59.3475C475.373 57.2298 477.556 56.2327 487.783 55.9949C499.169 55.73 499.243 55.7793 498.211 62.9202C497.808 65.7058 497.472 71.1838 497.463 75.0935C497.445 83.2179 496.84 84.5116 492.289 86.1532C489.228 87.2574 473.379 88.2647 470.375 87.546ZM380.587 84.5386C379.849 83.649 380.322 82.9999 383.039 81.1755C385.334 79.6343 386.555 78.1743 386.877 76.5886C387.136 75.3093 387.183 64.7284 386.98 53.0755C386.571 29.512 386.078 26.7982 382.202 26.7757C379.394 26.7579 377.96 25.7201 378.299 23.9472C378.55 22.6399 379.471 22.4459 386.38 22.2453C393.499 22.0386 398.574 22.9106 398.574 24.3406C398.574 24.6164 399.395 25.728 400.4 26.811C404.356 31.0782 416.6 48.2777 417.395 50.6845C417.858 52.0882 419.087 53.6241 420.127 54.0977C421.166 54.5713 424.246 57.5836 426.97 60.7918L431.924 66.6248L432.137 50.888C432.385 32.577 431.488 27.3407 427.953 26.4534C426.431 26.0716 425.997 25.5214 426.184 24.2097C426.424 22.5244 426.715 22.4728 435.793 22.5045C442.174 22.5282 445.252 22.8272 445.459 23.4479C445.626 23.9487 444.414 25.6696 442.767 27.2721L439.771 30.1856V56.7974C439.771 82.2641 439.705 83.4575 438.243 84.5288C435.356 86.6432 431.416 83.9002 424.624 75.0473C422.637 72.4578 420.807 70.1625 420.558 69.9467C420.308 69.7308 417.82 66.7294 415.028 63.2766C412.236 59.8239 409.767 56.8224 409.54 56.6067C409.313 56.3907 407.906 54.6253 406.413 52.6831C404.92 50.7409 403.298 48.7988 402.807 48.3672C402.317 47.9356 400.298 45.5588 398.32 43.0854C396.343 40.612 394.542 38.8839 394.318 39.2454C394.095 39.6067 394.136 48.137 394.41 58.2015L394.907 76.5007L398.629 80.2026C401.348 82.9077 402.117 84.1384 401.482 84.7727C400.117 86.1381 381.744 85.9324 380.587 84.5386ZM271.647 81.9483C270.676 81.7611 269.873 81.3679 269.862 81.0742C269.347 66.974 269.628 56.5696 270.534 56.2224C271.109 56.0021 274.527 55.8219 278.129 55.8219C283.123 55.8219 284.981 56.1242 285.951 57.0942C288.818 59.9609 285.079 62.7048 281.613 60.2776C279.384 58.7158 277.258 59.4461 276.134 62.1602C274.93 65.0678 275.663 66.9607 277.922 66.7775C278.895 66.6986 281.037 66.6731 282.683 66.7209C285.571 66.8048 285.667 66.8962 285.429 69.3581C285.17 72.0496 285.227 72.0328 279.879 70.9781C277.115 70.4328 275.374 71.8796 275.374 74.7233C275.374 78.7016 281.295 79.7804 284.954 76.4689C286.006 75.5167 286.632 75.3973 287.263 76.0284C288.607 77.3725 287.402 80.5636 285.165 81.5827C283.241 82.4592 275.401 82.6713 271.647 81.9483ZM224.564 81.1977C223.853 80.9106 223.584 78.1011 223.584 70.9693V61.1367L220.052 61.6662C216.671 62.1733 216.521 62.1129 216.521 60.242C216.521 56.6047 218.009 56.0352 226.857 56.2859C231.315 56.4123 235.25 56.536 235.603 56.5612C235.955 56.5849 236.131 57.5778 235.995 58.7646C235.788 60.5663 235.358 60.9333 233.392 60.9873C232.098 61.0229 230.597 61.1113 230.057 61.1833C228.745 61.3592 228.727 73.9693 230.034 77.5847C230.834 79.7976 230.802 80.3537 229.838 80.9633C228.608 81.7409 226.178 81.8488 224.564 81.1977ZM240.946 71.3655C240.967 66.0535 240.622 60.7725 240.181 59.63C239.152 56.969 239.581 56.6067 243.755 56.6067H247.187L246.96 61.5111L246.733 66.4155L251.368 66.6545C254.399 66.8108 256.208 66.5623 256.595 65.9368C256.92 65.4106 256.996 63.1343 256.763 60.8783C256.39 57.2658 256.526 56.7172 257.906 56.2793C258.768 56.0058 260.447 56.1523 261.638 56.6052C263.657 57.3727 263.759 57.6257 263.152 60.3525C262.533 63.1364 262.425 73.1517 262.961 78.1861C263.202 80.4491 263.079 80.5498 259.793 80.7857L256.374 81.0309L256.654 75.685L256.934 70.339H251.833H246.733V75.4396V80.5402L243.821 80.7819L240.909 81.0236L240.946 71.3655ZM236.275 53.1191C227.502 49.9385 224.651 37.8394 231.109 31.1903C234.156 28.0524 237.23 27.2083 243.667 27.742C247.6 28.0682 248.292 28.4275 251.477 31.7994C254.816 35.3342 254.972 35.7091 254.972 40.2191C254.972 42.8151 254.576 45.7105 254.091 46.6532C252.654 49.4511 249.287 52.6831 247.809 52.6831C247.052 52.6831 246.215 53.0362 245.948 53.4678C245.303 54.5111 239.542 54.3034 236.275 53.1191ZM247.587 48.2626C248.225 47.4569 249.097 45.9597 249.523 44.9353C250.351 42.946 249.76 38.0396 248.605 37.3263C248.223 37.0899 247.91 36.3104 247.91 35.5943C247.91 34.8782 246.972 33.4866 245.826 32.5018C242.975 30.0523 238.512 30.0949 235.601 32.5994C233.644 34.2828 233.413 34.9849 233.47 39.0732C233.544 44.2607 235.334 48.4615 237.946 49.577C240.612 50.7156 246.252 49.9467 247.587 48.2626ZM258.942 53.1308C257.498 51.3912 257.303 28.5339 258.727 27.9873C260.654 27.2478 271.51 27.5485 273.072 28.3847C273.971 28.8658 274.59 30.0231 274.59 31.2227C274.59 33.0382 274.366 33.1932 272.432 32.7169C265.176 30.9303 263.604 31.492 263.604 35.8705V38.4834L268.508 38.7171C273.383 38.9494 273.413 38.9654 273.413 41.3049V43.659H268.704H263.996L264.162 48.3394C264.331 53.0859 263.754 54.2161 261.15 54.2406C260.447 54.2465 259.453 53.7478 258.942 53.1308ZM81.1588 18.6018L78.0199 17.7133V9.10657V0.499891L82.9244 0.266195C87.6886 0.0393086 87.8289 0.0882617 87.8289 1.98444C87.8289 3.67348 87.4326 3.96909 84.8862 4.17985C80.7971 4.51828 80.8337 6.68606 84.9343 7.02389C87.5026 7.23536 87.8904 7.51257 87.6807 8.9857C87.4862 10.353 86.8298 10.751 84.4459 10.9475C81.8776 11.1592 81.4898 11.4361 81.6994 12.9093C81.899 14.3108 82.5896 14.6963 85.4748 15.0169C87.417 15.2328 88.9177 15.6741 88.8098 15.9978C88.7019 16.3215 88.6138 16.905 88.6138 17.2943C88.6138 18.759 84.3534 19.5062 81.1588 18.6018ZM45.9777 17.6327C45.69 17.3451 45.4546 14.3118 45.4546 10.8923C45.4546 5.46906 45.2383 4.49979 43.7603 3.30308C41.334 1.33839 42.5842 0.107576 47.0061 0.107576C53.1546 0.107576 55.1694 1.7025 51.7322 3.84899C50.3959 4.68354 50.1628 5.67896 50.1628 10.5508C50.1628 16.0858 49.408 18.1559 47.3901 18.1559C46.901 18.1559 46.2654 17.9204 45.9777 17.6327ZM58.6529 17.5761C57.5586 17.3278 57.2913 16.0497 57.0825 10.0654C56.7529 0.617755 56.8886 0.10744 59.731 0.10744C61.857 0.10744 62.0419 0.323334 61.9141 2.65774C61.664 7.2242 61.7044 7.27663 65.2685 7.01878C68.596 6.77796 68.6035 6.77023 68.6035 3.63864C68.6035 0.813688 68.7995 0.499801 70.5653 0.499801C72.5178 0.499801 72.5281 0.538053 72.7521 8.67113C72.8758 13.1654 72.6465 17.173 72.2425 17.5771C71.8385 17.9811 70.7661 18.0762 69.8595 17.7886C68.5726 17.3801 68.2111 16.623 68.2111 14.3363C68.2111 10.7051 67.2695 9.70366 64.2692 10.144C61.8675 10.4965 61.6759 10.8314 61.8954 14.2949C62.0404 16.5813 60.617 18.0216 58.6529 17.5761Z" fill="white"/>
</svg>
