<svg width="21" height="21" viewBox="0 0 21 21" fill="none" xmlns="http://www.w3.org/2000/svg">
<path d="M18.4394 4.57625C17.0306 4.43625 15.6219 4.33125 14.2044 4.2525V4.24375L14.0119 3.10625C13.8806 2.30125 13.6881 1.09375 11.6406 1.09375H9.34813C7.30938 1.09375 7.11688 2.24875 6.97688 3.0975L6.79313 4.2175C5.97938 4.27 5.16563 4.3225 4.35188 4.40125L2.56688 4.57625C2.19938 4.61125 1.93688 4.935 1.97188 5.29375C2.00688 5.6525 2.32188 5.915 2.68938 5.88L4.47438 5.705C9.05938 5.25 13.6794 5.425 18.3169 5.88875C18.3431 5.88875 18.3606 5.88875 18.3869 5.88875C18.7194 5.88875 19.0081 5.635 19.0431 5.29375C19.0694 4.935 18.8069 4.61125 18.4394 4.57625Z" fill="white"/>
<path d="M16.8268 7.1225C16.6168 6.90375 16.328 6.78125 16.0305 6.78125H4.97051C4.67301 6.78125 4.37551 6.90375 4.17426 7.1225C3.97301 7.34125 3.85926 7.63875 3.87676 7.945L4.41926 16.9225C4.51551 18.2525 4.63801 19.915 7.69176 19.915H13.3093C16.363 19.915 16.4855 18.2613 16.5818 16.9225L17.1243 7.95375C17.1418 7.63875 17.028 7.34125 16.8268 7.1225ZM11.953 15.5313H9.03926C8.68051 15.5313 8.38301 15.2338 8.38301 14.875C8.38301 14.5163 8.68051 14.2188 9.03926 14.2188H11.953C12.3118 14.2188 12.6093 14.5163 12.6093 14.875C12.6093 15.2338 12.3118 15.5313 11.953 15.5313ZM12.688 12.0313H8.31301C7.95426 12.0313 7.65676 11.7338 7.65676 11.375C7.65676 11.0163 7.95426 10.7188 8.31301 10.7188H12.688C13.0468 10.7188 13.3443 11.0163 13.3443 11.375C13.3443 11.7338 13.0468 12.0313 12.688 12.0313Z" fill="white"/>
</svg>
